<svg height="496pt" viewBox="0 0 496 496" width="496pt" xmlns="http://www.w3.org/2000/svg" xmlns:xlink="http://www.w3.org/1999/xlink"><linearGradient id="linear0" gradientUnits="userSpaceOnUse" x1="248" x2="248" y1="496" y2="0"><stop offset="0" stop-color="#9f2fff"/><stop offset="1" stop-color="#0bb1d3"/></linearGradient><path d="m374.335938 0h-7.246094c-21.167969 0-41.898438 5.632812-60.363282 16.214844-14.351562-10.175782-31.839843-16.214844-50.726562-16.214844h-8v56c0 9.214844 1.441406 18.105469 4.078125 26.457031-3.636719 10.65625-5.863281 21.550781-6.46875 32.453125l-3.195313 57.503906c-13.140624-6.015624-28.148437-6.949218-42.191406-2.261718-1.664062.550781-3.285156 1.191406-4.878906 1.886718l-67.894531-57.453124c-2.59375-15.171876-15.761719-26.585938-31.449219-26.585938-17.648438 0-32 14.351562-32 32 0 15.679688 11.414062 28.855469 26.585938 31.441406l61.375 72.535156c-28.472657 44.742188-65.296876 84.40625-108 115.726563l-32.015626 23.480469c-7.472656 5.488281-11.945312 14.304687-11.945312 23.578125 0 16.117187 13.121094 29.238281 29.230469 29.238281h4.578125c5.566406 0 11-1.585938 15.703125-4.566406l77.367187-49.234375 6.921875 6.921875-49.234375 77.367187c-2.992187 4.6875-4.566406 10.121094-4.566406 15.695313v4.578125c0 16.117187 13.121094 29.238281 29.230469 29.238281 9.28125 0 18.105469-4.472656 23.585937-11.953125l23.480469-32.015625c31.3125-42.695312 70.976563-79.527344 115.726563-108l72.527343 61.375c2.59375 15.179688 15.761719 26.59375 31.449219 26.59375 17.648438 0 32-14.351562 32-32 0-15.679688-11.414062-28.855469-26.585938-31.441406l-57.460937-67.910156c.695313-1.59375 1.328125-3.214844 1.878906-4.878907 4.6875-14.050781 3.769531-29.042969-2.246093-42.175781l57.503906-3.195312c14.925781-.832032 29.46875-4.511719 43.300781-10.78125 2.503906.214843 5.042969.382812 7.609375.382812h56v-8c0-14.425781-3.550781-28-9.726562-40.023438 11.558593-19.039062 17.726562-40.710937 17.726562-63.054687v-7.257813c0-67.089843-54.574219-121.664062-121.664062-121.664062zm-110.335938 16.441406c35.953125 3.992188 64 34.558594 64 71.558594v39.558594c-35.953125-3.992188-64-34.558594-64-71.558594zm-165.464844 119.628906-3.429687-.191406c-8.472657-.480468-15.105469-7.453125-15.105469-15.878906 0-8.824219 7.175781-16 16-16 8.433594 0 15.40625 6.640625 15.878906 15.105469l.183594 3.4375 69.015625 58.386719c-5.445313 4.621093-10.039063 10.253906-13.503906 16.6875-2.175781 4.03125-4.550781 7.957031-6.863281 11.925781zm274.929688 247.859376 3.429687.191406c8.472657.480468 15.105469 7.453125 15.105469 15.878906 0 8.824219-7.183594 16-16 16-8.433594 0-15.40625-6.640625-15.878906-15.105469l-.183594-3.4375-73.480469-62.167969c3.96875-2.304687 7.886719-4.6875 11.925781-6.863281 6.441407-3.464843 12.074219-8.058593 16.6875-13.503906zm-62.800782-93.21875c-3.390624 10.152343-10.449218 18.546874-19.863281 23.625-57.6875 31.054687-108.65625 75.40625-147.410156 128.238281l-23.46875 32.019531c-2.488281 3.382812-6.480469 5.40625-10.691406 5.40625-7.292969 0-13.230469-5.9375-13.230469-13.238281v-4.578125c0-2.519532.71875-4.984375 2.070312-7.105469l50.320313-79.078125h19.609375v-16h-20.6875l-11.3125-11.3125v-20.6875h-16v19.609375l-79.078125 50.328125c-2.121094 1.351562-4.585937 2.0625-7.105469 2.0625h-4.585937c-7.292969 0-13.230469-5.9375-13.230469-13.238281 0-4.203125 2.023438-8.1875 5.414062-10.671875l32.019532-23.480469c52.832031-38.753906 97.175781-89.722656 128.238281-147.402344 5.070313-9.429687 13.464844-16.488281 23.617187-19.871093 12.238282-4.089844 25.453126-2.207032 36.144532 4.832031l-1.433594 25.832031c0 8.136719 2.472656 15.6875 6.679688 22.007812l-19.527344 19.527344c-19.65625 19.648438-45.769532 30.464844-73.542969 30.464844h-9.609375v16h9.609375c17.117187 0 33.648437-3.664062 48.832031-10.441406-6.777344 15.175781-10.441406 31.714844-10.441406 48.832031v9.609375h16v-9.609375c0-27.78125 10.816406-53.894531 30.464844-73.535156l19.550781-19.542969c6.398437 4.207031 14.089844 6.695312 22.410156 6.695312h.023438l25.382812-1.414062c7.039063 10.671875 8.902344 23.886719 4.832031 36.117188zm121.335938-66.710938c-37 0-67.558594-28.046875-71.550781-64h39.550781c37 0 67.558594 28.046875 71.550781 64zm48-95.078125c0 16.765625-4.007812 33.085937-11.558594 47.886719-16.144531-19.984375-40.808594-32.808594-68.441406-32.808594h-56v8c0 35.671875 21.375 66.398438 51.96875 80.199219-5.199219 1.105469-10.457031 1.929687-15.777344 2.226562l-100.191406 5.574219c-13.230469 0-24-10.769531-24.015625-23.550781l5.589844-100.640625c.203125-3.648438.683593-7.304688 1.28125-10.945313 15.808593 23.578125 42.6875 39.136719 73.144531 39.136719h8v-56c0-23.488281-9.304688-44.792969-24.34375-60.59375 14.75-7.445312 30.945312-11.40625 47.433594-11.40625h7.246094c58.265624 0 105.664062 47.398438 105.664062 105.664062zm-168 71.078125v16c-17.648438 0-32-14.351562-32-32h16c0 8.824219 7.175781 16 16 16zm136.472656-124.367188-13.410156 8.742188c-14.855469-22.773438-39.917969-36.375-67.0625-36.375-4.902344 0-9.800781.449219-14.542969 1.320312l-2.90625-15.734374c5.695313-1.050782 11.578125-1.585938 17.449219-1.585938 32.566406 0 62.648438 16.3125 80.472656 43.632812zm0 0" fill="url(#linear0)"/></svg>