<svg height="496pt" viewBox="0 0 496.09221 496" width="496pt" xmlns="http://www.w3.org/2000/svg" xmlns:xlink="http://www.w3.org/1999/xlink"><linearGradient id="linear0" gradientUnits="userSpaceOnUse" x1="248.045006" x2="248.045006" y1="496.046105" y2=".046105"><stop offset="0" stop-color="#9f2fff"/><stop offset="1" stop-color="#0bb1d3"/></linearGradient><path d="m240.09375 392.046875c0 13.230469-10.769531 24-24 24v-16c4.40625 0 8-3.585937 8-8 0-4.417969-3.59375-8-8-8-4.410156 0-8 3.582031-8 8h-16c0-13.234375 10.765625-24 24-24 13.230469 0 24 10.765625 24 24zm-168-24v-16c-8.824219 0-16-7.175781-16-16s7.175781-16 16-16v-16c-17.648438 0-32 14.351563-32 32s14.351562 32 32 32zm136-152c13.230469 0 24 10.765625 24 24h16c0-22.058594-17.945312-40-40-40-22.058594 0-40 17.941406-40 40h16c0-13.234375 10.765625-24 24-24zm-32 240h16c0-22.058594-17.945312-40-40-40-22.058594 0-40 17.941406-40 40h16c0-13.234375 10.765625-24 24-24 13.230469 0 24 10.765625 24 24zm-24-88h-16c0 4.414063-3.59375 8-8 8-4.410156 0-8-3.585937-8-8 0-4.417969 3.589844-8 8-8v-16c-13.234375 0-24 10.765625-24 24 0 13.230469 10.765625 24 24 24 13.230469 0 24-10.769531 24-24zm-24-112h-16c0 8.824219-7.175781 16-16 16s-16-7.175781-16-16h-16c0 17.648437 14.351562 32 32 32 17.644531 0 32-14.351563 32-32zm144 80v-16c-4.410156 0-8-3.585937-8-8 0-4.417969 3.589844-8 8-8 4.40625 0 8 3.582031 8 8h16c0-13.234375-10.769531-24-24-24-13.234375 0-24 10.765625-24 24 0 13.230469 10.765625 24 24 24zm-208 72c-4.410156 0-8-3.585937-8-8h-16c0 13.230469 10.765625 24 24 24 13.230469 0 24-10.769531 24-24h-16c0 4.414063-3.59375 8-8 8zm79.460938 88c-39.804688 0-76.246094-14.511719-102.597657-40.863281-48.121093-48.128906-54.449219-125.867188-15.746093-193.449219 10.378906-18.128906 28.210937-31.410156 51.570312-38.398437 4.773438-1.488282 8.632812-5.167969 10.277344-9.691407 6.320312-17.839843 18.160156-31.238281 33.417968-37.925781 23.261719-10.199219 48.28125-15.601562 72.335938-15.601562 39.734375 0 76.105469 14.488281 102.40625 40.800781 41.128906 41.128906 52.144531 104.761719 28.761719 166.082031-3.929688 10.292969-13.671875 17.207031-24.257813 17.207031-.71875 0-1.445312-.03125-2.167968-.097656-1.398438-.128906-2.902344-.070313-4.414063.199219-6.335937 1.105468-11.578125 6.28125-12.753906 12.585937-.6875 3.671875-.167969 7.296875 1.503906 10.488281 5.425781 10.351563 3.859375 22.527344-3.886719 30.320313-37.128906 37.128906-86.085937 58.34375-134.449218 58.34375zm-91.285157-52.175781c23.328125 23.328125 55.75 36.175781 91.285157 36.175781 44.152343 0 88.992187-19.511719 123.007812-53.535156 2.945312-2.953125 3.355469-7.511719 1.152344-11.722657-3.351563-6.40625-4.40625-13.621093-3.046875-20.863281 2.382812-12.734375 12.960937-23.199219 25.71875-25.441406 2.921875-.511719 5.808593-.4375 8.601562-.4375h.078125c4.632813 0 8.417969-2.777344 9.96875-6.824219 21.105469-55.34375 11.480469-112.402344-25.117187-149-23.28125-23.28125-55.632813-36.113281-91.097657-36.113281-21.863281 0-44.65625 4.929687-65.910156 14.257813-11.171875 4.886718-19.929687 14.984374-24.699218 28.421874-3.503907 9.585938-11.09375 16.832032-20.429688 19.746094-13.90625 4.167969-32.191406 12.832032-42.679688 31.152344-35.074218 61.230469-29.777343 131.222656 13.167969 174.183594zm187.824219-163.824219c0 13.230469-10.769531 24-24 24-13.234375 0-24-10.769531-24-24 0-13.234375 10.765625-24 24-24 13.230469 0 24 10.765625 24 24zm-16 0c0-4.417969-3.59375-8-8-8-4.410156 0-8 3.582031-8 8 0 4.414063 3.589844 8 8 8 4.40625 0 8-3.585937 8-8zm-96 32c0-13.234375 10.765625-24 24-24 13.230469 0 24 10.765625 24 24 0 13.230469-10.769531 24-24 24-13.234375 0-24-10.769531-24-24zm16 0c0 4.414063 3.589844 8 8 8 4.40625 0 8-3.585937 8-8 0-4.417969-3.59375-8-8-8-4.410156 0-8 3.582031-8 8zm16-288c35.285156 0 64 21.527344 64 48s-28.714844 48-64 48c-35.289062 0-64-21.527344-64-48s28.710938-48 64-48zm-48 48c0 17.34375 21.984375 32 48 32s48-14.65625 48-32-21.984375-32-48-32-48 14.65625-48 32zm335.421875 117.367187c-8.480469 7.457032-18.847656 11.382813-29.992187 11.382813-.007813 0-.007813 0-.007813 0-20.359375 0-38.695313-13.160156-45.640625-32.734375-7.429688-20.3125-23.382812-36.289062-42.941406-43.488281l-.875-.3125c-15.46875-5.488281-27.125-18.113281-31.207032-33.785157-3.902343-15.015624-.3125-30.269531 9.863282-41.855468 2.152344-2.445313 4.402344-4.855469 6.753906-7.199219 26.296875-26.296875 60.382812-41.375 93.519531-41.375 25.039063 0 47.761719 8.917969 63.96875 25.136719 38.941407 38.941406 31.65625 109.589844-16.242187 157.496094-2.351563 2.335937-4.75 4.582031-7.199219 6.734374zm-4.113281-18.0625c41.65625-41.648437 48.945312-102.152343 16.242187-134.859374-13.382812-13.375-31.585937-20.445313-52.65625-20.445313-28.921875 0-58.886719 13.375-82.199219 36.6875-2.105468 2.105469-4.121093 4.253906-6.050781 6.457031-6.613281 7.527344-8.941406 17.46875-6.398437 27.261719 2.746094 10.527344 10.609375 19.023437 21.023437 22.722656l1.144531.414063c23.863282 8.777344 43.367188 28.3125 52.121094 52.230468l.320313.882813c4.6875 13.214844 16.96875 22.09375 30.566406 22.09375h.007813c7.199218 0 13.921874-2.550781 19.441406-7.398437 2.183594-1.929688 4.335937-3.945313 6.4375-6.046876zm-11.308594-75.304687c-4.410156 0-8-3.585937-8-8h-16c0 13.230469 10.765625 24 24 24 13.230469 0 24-10.769531 24-24h-16c0 4.414063-3.59375 8-8 8zm-88-48v16c4.40625 0 8 3.582031 8 8 0 4.414063-3.59375 8-8 8v16c13.230469 0 24-10.769531 24-24 0-13.234375-10.769531-24-24-24zm72 16c13.230469 0 24-10.769531 24-24h-16c0 4.414063-3.59375 8-8 8-4.410156 0-8-3.585937-8-8h-16c0 13.230469 10.765625 24 24 24zm0 88c-4.410156 0-8-3.585937-8-8 0-4.417969 3.589844-8 8-8v-16c-13.234375 0-24 10.765625-24 24 0 13.230469 10.765625 24 24 24 13.230469 0 24-10.769531 24-24h-16c0 4.414063-3.59375 8-8 8zm80 256c0 39.703125-32.304688 72-72 72-39.699219 0-72-32.296875-72-72s32.300781-72 72-72c39.695312 0 72 32.296875 72 72zm-16 0c0-30.871094-25.121094-56-56-56-30.882812 0-56 25.128906-56 56s25.117188 56 56 56c30.878906 0 56-25.128906 56-56zm-64-152c13.230469 0 24 10.765625 24 24 0 13.230469-10.769531 24-24 24-13.234375 0-24-10.769531-24-24 0-13.234375 10.765625-24 24-24zm0 16c-4.410156 0-8 3.582031-8 8 0 4.414063 3.589844 8 8 8 4.40625 0 8-3.585937 8-8 0-4.417969-3.59375-8-8-8zm-360-120c-13.234375 0-24-10.769531-24-24 0-13.234375 10.765625-24 24-24 13.230469 0 24 10.765625 24 24 0 13.230469-10.769531 24-24 24zm0-16c4.40625 0 8-3.585937 8-8 0-4.417969-3.59375-8-8-8-4.410156 0-8 3.582031-8 8 0 4.414063 3.589844 8 8 8zm248 0c13.230469 0 24 10.765625 24 24 0 13.230469-10.769531 24-24 24-13.234375 0-24-10.769531-24-24 0-13.234375 10.765625-24 24-24zm-8 24c0 4.414063 3.589844 8 8 8 4.40625 0 8-3.585937 8-8 0-4.417969-3.59375-8-8-8-4.410156 0-8 3.582031-8 8zm32 296c0 13.230469-10.769531 24-24 24-13.234375 0-24-10.769531-24-24 0-13.234375 10.765625-24 24-24 13.230469 0 24 10.765625 24 24zm-16 0c0-4.417969-3.59375-8-8-8-4.410156 0-8 3.582031-8 8 0 4.414063 3.589844 8 8 8 4.40625 0 8-3.585937 8-8zm-280-280c13.230469 0 24 10.765625 24 24 0 13.230469-10.769531 24-24 24-13.234375 0-24-10.769531-24-24 0-13.234375 10.765625-24 24-24zm0 16c-4.410156 0-8 3.582031-8 8 0 4.414063 3.589844 8 8 8 4.40625 0 8-3.585937 8-8 0-4.417969-3.59375-8-8-8zm0 0" fill="url(#linear0)"/></svg>