<svg height="496pt" viewBox="0 0 496 495" width="496pt" xmlns="http://www.w3.org/2000/svg" xmlns:xlink="http://www.w3.org/1999/xlink"><linearGradient id="linear0" gradientUnits="userSpaceOnUse" x1="248" x2="248" y1="496.268" y2=".5024"><stop offset="0" stop-color="#9f2fff"/><stop offset="1" stop-color="#0bb1d3"/></linearGradient><path d="m422.480469 19.667969c-12.359375-12.359375-28.792969-19.167969-46.746094-19.167969-17.4375 0-33.847656 6.785156-46.199219 19.089844l-26.925781 26.839844c-12.089844 12.046874-20.960937 27-25.960937 43.167968l-3.679688-3.683594c-8.808594-8.796874-20.511719-13.644531-32.96875-13.644531s-24.167969 4.847657-32.96875 13.65625l-7.03125 7.03125-34.054688-34.058593c-6.855468-6.855469-15.96875-10.628907-25.65625-10.628907-20.007812 0-36.289062 16.277344-36.289062 36.285157 0 9.699218 3.777344 18.808593 10.632812 25.65625l34.054688 34.058593-39.03125 39.03125c-8.808594 8.800781-13.65625 20.511719-13.65625 32.96875 0 12.453125 4.847656 24.167969 13.65625 32.964844l8.589844 8.59375c-4.757813 2.839844-9.277344 6.152344-13.300782 10.175781l-94.320312 94.320313c-6.847656 6.855469-10.625 15.96875-10.625 25.65625 0 20.007812 16.28125 36.289062 36.289062 36.289062h2.285157c7.800781 0 15.53125-2.578125 21.777343-7.257812l75.648438-56.742188-56.742188 75.664063c-4.683593 6.230468-7.257812 13.964844-7.257812 21.765625v2.289062c0 20 16.28125 36.28125 36.289062 36.28125 9.695313 0 18.808594-3.777343 25.65625-10.632812l94.320313-94.320313c4.023437-4.023437 7.335937-8.535156 10.175781-13.304687l8.589844 8.59375c8.800781 8.816406 20.511719 13.664062 32.96875 13.664062s24.160156-4.847656 32.96875-13.65625l15.03125-15.035156 23.03125 23.035156c3.121094 3.117188 3.121094 8.191407 0 11.3125l-9.375 9.375c-9.359375 9.351563-9.359375 24.582031 0 33.933594l44.6875 44.691406 11.3125-11.3125-44.6875-44.6875c-3.121094-3.121093-3.121094-8.195312 0-11.3125l9.375-9.378906c9.359375-9.351563 9.359375-24.582031 0-33.933594l-23.03125-23.03125 12.6875-12.691406 34.054688 34.058594c6.855468 6.855469 15.96875 10.632812 25.65625 10.632812 20.007812 0 36.289062-16.28125 36.289062-36.289062 0-9.695313-3.777344-18.808594-10.632812-25.65625l-34.054688-34.054688 7.03125-7.035156c8.808594-8.796875 13.65625-20.511719 13.65625-32.964844 0-12.457031-4.847656-24.167969-13.65625-32.96875l-3.6875-3.679687c16.183594-5 31.128906-13.863282 43.175781-25.960938l27.070313-27.167968c12.3125-12.359376 19.097656-28.761719 19.097656-46.199219 0-17.480469-6.808594-33.914063-19.167969-46.273438zm-204.136719 77.566406c11.566406-11.566406 31.746094-11.566406 43.3125 0l11.097656 11.097656c-.457031 3.921875-.753906 7.863281-.753906 11.832031 0 2.367188.199219 4.679688.351562 7.015626-7.253906-4.472657-15.609374-6.910157-24.351562-6.910157-6.039062 0-11.894531 1.167969-17.34375 3.34375l-19.34375-19.34375zm-30.34375 63.722656-40.6875-40.6875 28.6875-28.691406 40.769531 40.769531c-.585937.519532-1.183593 1.015625-1.738281 1.578125zm-68-76.402343c0-11.183594 9.105469-20.285157 20.289062-20.285157 5.414063 0 10.511719 2.109375 14.34375 5.941407l10.054688 10.058593-28.6875 28.6875-10.054688-10.058593c-3.832031-3.832032-5.945312-8.925782-5.945312-14.34375zm.96875 153.371093c-5.785156-5.785156-8.96875-13.480469-8.96875-21.65625s3.183594-15.875 8.96875-21.65625l39.03125-39.035156 16.6875 16.691406-27.03125 27.03125c-8.808594 8.800781-13.65625 20.511719-13.65625 32.96875 0 5.886719 1.191406 11.765625 3.449219 17.269531-1.832031.359376-3.59375.96875-5.386719 1.480469zm13.136719 103.765625-44.210938 33.160156-34.582031-34.582031 54.113281-54.113281zm-83.363281 62.519532c-3.484376 2.617187-7.8125 4.058593-12.175782 4.058593h-2.277344c-11.183593 0-20.289062-9.105469-20.289062-20.289062 0-5.417969 2.113281-10.511719 5.945312-14.34375l22.054688-22.058594 32.96875 32.96875zm103.832031-42.046876 55.53125 24.679688-54.105469 54.113281-34.585938-34.585937zm-31.941407 112.160157c-3.832031 3.832031-8.929687 5.945312-14.34375 5.945312-11.183593 0-20.289062-9.105469-20.289062-20.289062v-2.289063c0-4.359375 1.441406-8.679687 4.054688-12.167968l19.664062-26.222657 32.96875 32.96875zm99.039063-99.839844-65.070313-28.921875-5.898437-5.894531-28.917969-65.070313c8.015625-6.042968 17.542969-9.5625 27.65625-10.167968l29.199219 29.207031 11.3125-11.3125-31.25-31.257813c-4.3125-5.496094-6.703125-12.152344-6.703125-18.796875 0-8.175781 3.183594-15.875 8.96875-21.65625l65.375-65.378906c11.566406-11.566406 31.746094-11.566406 43.3125 0l7.710938 7.714844c10.335937 31.046875 34.898437 55.605469 65.945312 65.941406l7.710938 7.714844c5.792968 5.789062 8.976562 13.488281 8.976562 21.664062s-3.183594 15.871094-8.96875 21.65625l-65.375 65.375c-10.496094 10.480469-28.214844 11.863281-40.464844 2.253907l-31.238281-31.238282-11.3125 11.3125 29.207031 29.199219c-.617187 10.105469-4.136718 19.640625-10.175781 27.65625zm140.671875-93.25c.550781-.550781 1.046875-1.160156 1.578125-1.734375l40.765625 40.769531-28.6875 28.6875-40.6875-40.6875zm-60.6875 94.066406c-11.566406 11.566407-31.746094 11.566407-43.3125 0l-13.097656-13.097656c.515625-1.792969 1.121094-3.542969 1.480468-5.382813 17.160157 7.039063 37.28125 2.769532 50.242188-10.207031l27.03125-27.035156 16.6875 16.691406zm130.34375-19.320312c0 11.183593-9.105469 20.289062-20.289062 20.289062-5.414063 0-10.511719-2.113281-14.34375-5.945312l-10.054688-10.054688 28.6875-28.691406 10.054688 10.058594c3.832031 3.832031 5.945312 8.925781 5.945312 14.34375zm-32.96875-121.367188c5.785156 5.78125 8.96875 13.480469 8.96875 21.65625s-3.183594 15.871094-8.96875 21.65625l-7.03125 7.03125-19.34375-19.34375c2.175781-5.449219 3.34375-11.304687 3.34375-17.34375 0-8.746093-2.441406-17.097656-6.910156-24.355469 2.324218.152344 4.644531.355469 7.015625.355469 3.964843 0 7.910156-.296875 11.832031-.753906zm66.542969-79.417969-27.070313 27.167969c-16.40625 16.464844-39.160156 25.90625-62.398437 25.90625-48.585938 0-88.105469-39.523437-88.105469-88.105469 0-23.25 9.441406-45.992187 25.902344-62.398437l26.929687-26.839844c9.335938-9.304687 21.726563-14.425781 35.367188-14.425781 13.207031 0 25.625 5.144531 34.960937 14.480469l54.351563 54.351562c9.335937 9.34375 14.480469 21.753907 14.480469 34.960938.007812 13.175781-5.113282 25.566406-14.417969 34.902343zm-81.734375-96.910156c-6.40625-6.402344-14.742188-9.785156-24.105469-9.785156-8.917969 0-17.300781 3.464844-23.582031 9.742188l-10.945313 10.859374c-13.480469 13.421876-21.207031 32.03125-21.207031 51.0625 0 39.761719 32.34375 72.105469 72.105469 72.105469 19.03125 0 37.636719-7.730469 51.078125-21.21875l11.054687-11.152343c6.296875-6.300782 9.761719-14.6875 9.761719-23.613282 0-8.800781-3.566406-17.417968-9.792969-23.632812zm43.054687 90.335938-11.0625 11.152344c-10.441406 10.488281-24.929687 16.496093-39.726562 16.496093-30.9375 0-56.105469-25.167969-56.105469-56.105469 0-14.808593 6.007812-29.289062 16.480469-39.71875l10.953125-10.867187c3.285156-3.277344 7.644531-5.078125 12.300781-5.078125 5.027344 0 9.457031 1.769531 12.800781 5.105469l54.367188 54.367187c3.242187 3.238282 5.097656 7.734375 5.097656 12.320313 0 4.648437-1.808594 9.023437-5.105469 12.328125zm-87.582031 107.648437-99.3125-99.3125-67.3125 67.3125 99.3125 99.308594zm-99.3125-76.691406 76.6875 76.691406-44.6875 44.6875-76.6875-76.6875zm40 60.691406c0-13.234375-10.769531-24-24-24s-24 10.765625-24 24c0 13.230469 10.769531 24 24 24s24-10.769531 24-24zm-24 8c-4.40625 0-8-3.59375-8-8 0-4.410156 3.59375-8 8-8s8 3.589844 8 8c0 4.40625-3.59375 8-8 8zm0 0" fill="url(#linear0)"/></svg>