<svg height="496pt" viewBox="0 0 496.62326 496" width="496pt" xmlns="http://www.w3.org/2000/svg" xmlns:xlink="http://www.w3.org/1999/xlink"><linearGradient id="linear0" gradientUnits="userSpaceOnUse" x1="248.305532" x2="248.305532" y1="496.918716" y2=".309116"><stop offset="0" stop-color="#9f2fff"/><stop offset="1" stop-color="#0bb1d3"/></linearGradient><path d="m426.027344 168.519531c9.054687 0 16.695312-2.855469 22.105468-8.261719 17.207032-17.210937 6.207032-55.175781-25.042968-86.433593-20.542969-20.542969-45.199219-33.304688-64.328125-33.304688-9.054688 0-16.695313 2.855469-22.101563 8.265625-17.210937 17.207032-6.210937 55.175782 25.039063 86.429688 20.535156 20.546875 45.191406 33.304687 64.328125 33.304687zm10.792968-19.574219c-2.378906 2.375-6 3.574219-10.785156 3.574219-5.382812 0-11.566406-1.519531-18.089844-4.238281l28.167969-28.160156c5.394531 12.984375 5.707031 23.816406.707031 28.824218zm-8.539062-43.632812-35.070312 35.070312c-6.878907-4.496093-13.785157-10.054687-20.199219-16.488281-6.703125-6.695312-12.167969-13.535156-16.503907-20.175781l35.070313-35.070312c6.882813 4.496093 13.785156 10.054687 20.199219 16.488281 6.707031 6.703125 12.167968 13.535156 16.503906 20.175781zm-80.308594-45.214844c2.375-2.378906 6.007813-3.578125 10.789063-3.578125 5.386719 0 11.570312 1.519531 18.082031 4.242188l-28.167969 28.160156c-5.394531-12.984375-5.703125-23.816406-.703125-28.824219zm-294.671875 383.519532c23.566407 23.574218 50.773438 40.886718 76.574219 48.742187 10.015625 3.058594 19.441406 4.5625 28.054688 4.5625 15.074218 0 27.707031-4.617187 36.785156-13.707031 7.046875-7.046875 11.304687-16.671875 12.832031-27.902344 9.71875-3.0625 16.847656-12.0625 16.847656-22.792969 0-13.230469-10.765625-24-24-24-.046875 0-.09375.015625-.144531.015625-4.445312-11.351562-10.648438-22.957031-18.292969-34.261718l24.558594-24.5625c26.472656 20.617187 54.480469 35.984374 81.464844 44.203124 14.613281 4.445313 28.328125 6.644532 40.832031 6.644532 21.503906 0 39.445312-6.519532 52.269531-19.351563 7.816407-7.796875 13.167969-17.6875 16.257813-29.207031 10.871094-2.296875 19.054687-11.945312 19.054687-23.480469 0-11.359375-7.945312-20.839843-18.558593-23.320312-5.953126-31.398438-22.832032-65.878907-48.265626-98.535157l24.359376-24.359374c14.5625 9.894531 29.570312 17.429687 44.144531 21.871093 10.015625 3.046875 19.441406 4.558594 28.058593 4.558594 15.070313 0 27.703126-4.613281 36.78125-13.703125 28.546876-28.542969 11.160157-90.664062-39.589843-141.414062-23.578125-23.578126-50.785157-40.890626-76.585938-48.746094-27.527343-8.382813-50.566406-5.136719-64.839843 9.144531-.855469.855469-1.671876 1.824219-2.472657 2.816406-1.015625-.128906-2-.3125-3.03125-.3125-13.230469 0-24 10.769531-24 24 0 10.808594 7.222657 19.863281 17.074219 22.855469 2.824219 18.90625 11.628906 39.554688 25.191406 59.5625l-24.402344 24.398438c-67.460937-52.488282-140.09375-65.976563-174.550781-31.511719-3.769531 3.761719-6.816406 8.175781-9.511719 12.871093-.609374-.039062-1.183593-.175781-1.800781-.175781-13.230469 0-24 10.769531-24 24 0 10.527344 6.855469 19.402344 16.3125 22.625 2.167969 35.273438 20.609375 76.816407 50.496094 115.265625l-24.519531 24.511719c-20.105469-13.640625-40.777344-22.449219-59.425782-25.289063-2.976562-9.871093-12.046874-17.113281-22.863281-17.113281-13.230469 0-24 10.769531-24 24 0 1.039063.175781 2.03125.304688 3.039063-1.0625.859375-2.097657 1.730468-3 2.640625-14.273438 14.273437-17.519531 37.304687-9.144531 64.832031 7.855468 25.808594 25.167968 53.007812 48.746093 76.585938zm155.09375-11.097657c0 4.417969-3.582031 8-8 8-4.414062 0-8-3.582031-8-8 0-4.414062 3.585938-8 8-8 4.417969 0 8 3.585938 8 8zm-23.152343-18.464843c-5.359376 4.410156-8.847657 11-8.847657 18.464843 0 10.128907 6.320313 18.761719 15.207031 22.28125-1.191406 7.054688-3.910156 12.816407-8.199218 17.105469-9.902344 9.894531-27.261719 11.71875-48.863282 5.140625-12.238281-3.726563-24.886718-9.917969-37.296874-18.0625l73.199218-73.199219c6.152344 9.414063 11.136719 18.96875 14.800782 28.269532zm207.152343-77.535157c-4.414062 0-8-3.582031-8-8 0-4.414062 3.585938-8 8-8 4.417969 0 8 3.585938 8 8 0 4.417969-3.582031 8-8 8zm-30.328125-316.34375c23.335938 7.105469 48.167969 23 69.929688 44.753907 42.917968 42.925781 61.054687 97.328124 39.589844 118.789062-9.902344 9.898438-27.246094 11.738281-48.863282 5.152344-23.335937-7.101563-48.175781-23-69.925781-44.75-25.378906-25.386719-42.882813-55.878906-47.257813-81.425782 8.703126-3.605468 14.855469-12.183593 14.855469-22.175781 0-6.167969-2.398437-11.734375-6.230469-15.984375 10.039063-9.144531 26.917969-10.75 47.902344-4.359375zm-65.671875 12.34375c4.417969 0 8 3.59375 8 8 0 4.410157-3.582031 8-8 8-4.414062 0-8-3.589843-8-8 0-4.40625 3.585938-8 8-8zm45.089844 122.914063c6.230469 6.238281 12.742187 12 19.390625 17.300781l-132.40625 132.402344c-6.671875-5.222657-13.210938-10.9375-19.488281-17.199219-6.265625-6.273438-11.984375-12.816406-17.203125-19.488281l132.480468-132.480469c5.289063 6.65625 10.960938 13.199219 17.226563 19.464844zm-26.609375 85.917968c23.375 35.585938 28.832031 70.242188 12.902344 86.167969-9.902344 9.898438-27.238282 11.738281-48.863282 5.160157-12.238281-3.726563-24.886718-9.925782-37.296874-18.070313zm-135.9375-78.289062c3.929688 7.9375 12.019531 13.457031 21.457031 13.457031 8.648438 0 16.175781-4.640625 20.402344-11.519531 11.300781 3.71875 23.03125 9.511719 34.671875 17.136719l-73.160156 73.167969c-8.144532-12.410157-14.34375-25.054688-18.074219-37.296876-6.574219-21.617187-4.742187-38.96875 5.160156-48.863281 2.59375-2.617187 5.832031-4.601562 9.542969-6.082031zm13.457031-10.542969c0-4.40625 3.585938-8 8-8 4.417969 0 8 3.59375 8 8 0 4.410157-3.582031 8-8 8-4.414062 0-8-3.589843-8-8zm-65.375-25.375c27.925781-27.9375 92.207031-14.152343 151.839844 31.589844l-11.878906 11.882813c-14.265625-9.671876-28.847657-16.9375-42.914063-21.351563-1.605468-11.679687-11.550781-20.746094-23.671875-20.746094-11.230469 0-20.617187 7.792969-23.214843 18.234375-7.503907 2.246094-13.945313 5.910156-19.105469 11.070313-14.277344 14.28125-17.527344 37.304687-9.152344 64.839843 7.855469 25.808594 25.167969 53 48.746094 76.585938 23.574219 23.574219 50.78125 40.886719 76.582031 48.742188 10.015625 3.046874 19.433594 4.550781 28.058594 4.550781 15.070312 0 27.703125-4.613281 36.78125-13.703125 22.183594-22.183594 16.898437-65.441406-12.710938-108.992188l11.792969-11.785156c22.902344 29.800781 38.167969 60.851562 43.742187 88.976562-7.976562 3.90625-13.519531 12.015626-13.519531 21.480469 0 9.273438 5.34375 17.242188 13.066407 21.234375-2.433594 7.972656-6.3125 14.765625-11.691407 20.140625-15.902343 15.90625-43.285156 19-77.125 8.707031-35.5625-10.824218-73.328125-34.960937-106.34375-67.984374-43.167969-43.167969-70.816406-94.441407-73.59375-135.664063 9.136719-3.402344 15.6875-12.128906 15.6875-22.433594 0-6.855469-2.917969-13.007812-7.542969-17.382812 1.808594-2.90625 3.800782-5.632813 6.167969-7.992188zm-22.625 17.375c4.417969 0 8 3.59375 8 8 0 3.136719-1.855469 5.800781-4.503906 7.105469l-3.902344.808594c-4.21875-.226563-7.59375-3.648438-7.59375-7.914063 0-4.40625 3.585938-8 8-8zm70.59375 177.410157c6.199219 6.199218 12.613281 11.992187 19.109375 17.574218l-110.007812 110.007813c-6.671875-5.222657-13.207032-10.945313-19.480469-17.207031-6.261719-6.265626-11.980469-12.808594-17.207031-19.480469l109.945312-109.945313c5.566406 6.480469 11.457032 12.855469 17.640625 19.050782zm-134.59375-33.410157c4.375 0 7.914063 3.519531 7.976563 7.878907l-.03125.402343c-.152344 4.273438-3.632813 7.71875-7.945313 7.71875-4.414062 0-8-3.582031-8-8 0-4.414062 3.585938-8 8-8zm-16.007812 25.753907c4.257812 3.839843 9.832031 6.246093 16.007812 6.246093 9.992188 0 18.5625-6.152343 22.167969-14.847656 15.105469 2.617187 31.921875 9.792969 48.617188 20.753906l-73.257813 73.253907c-8.144531-12.40625-14.335937-25.054688-18.0625-37.296876-6.417969-21.109374-4.769531-38.101562 4.527344-48.109374zm0 0" fill="url(#linear0)"/></svg>