<svg height="496pt" viewBox="0 0 496 496" width="496pt" xmlns="http://www.w3.org/2000/svg" xmlns:xlink="http://www.w3.org/1999/xlink"><linearGradient id="linear0" gradientUnits="userSpaceOnUse" x1="248" x2="248" y1="496" y2="0"><stop offset="0" stop-color="#9f2fff"/><stop offset="1" stop-color="#0bb1d3"/></linearGradient><path d="m152 288c-30.878906 0-56 25.121094-56 56s25.121094 56 56 56 56-25.121094 56-56-25.121094-56-56-56zm0 96c-22.054688 0-40-17.945312-40-40s17.945312-40 40-40 40 17.945312 40 40-17.945312 40-40 40zm23.414062-141.144531c-2.367187-10.765625-11.949218-18.855469-23.414062-18.855469s-21.046875 8.089844-23.414062 18.855469c-47.042969 10.785156-80.585938 52.304687-80.585938 101.144531 0 21.511719 6.847656 42.601562 19.28125 60.113281-2.035156 3.519531-3.28125 7.542969-3.28125 11.886719 0 13.230469 10.769531 24 24 24 5.351562 0 10.257812-1.824219 14.246094-4.800781 15.289062 8.375 32.355468 12.800781 49.753906 12.800781 57.34375 0 104-46.65625 104-104 0-48.839844-33.542969-90.359375-80.585938-101.144531zm-23.414062-2.855469c4.40625 0 8 3.59375 8 8s-3.59375 8-8 8-8-3.59375-8-8 3.59375-8 8-8zm-64 184c-4.40625 0-8-3.59375-8-8s3.59375-8 8-8 8 3.59375 8 8-3.59375 8-8 8zm64 8c-14.230469 0-28.136719-3.679688-40.753906-10.335938.449218-1.824218.753906-3.703124.753906-5.664062 0-13.230469-10.769531-24-24-24-3.03125 0-5.910156.625-8.585938 1.65625-10.09375-14.65625-15.414062-31.671875-15.414062-49.65625 0-40.800781 27.648438-75.585938 66.664062-85.246094 3.960938 7.820313 11.984376 13.246094 21.335938 13.246094 9.34375 0 17.375-5.425781 21.335938-13.246094 39.007812 9.660156 66.664062 44.445313 66.664062 85.246094 0 48.519531-39.480469 88-88 88zm170.585938-286.480469 9.367187 12.96875-66.464844 48-9.367187-12.96875zm33.230468-24 9.367188 12.96875-22.160156 16-9.367188-12.96875zm120.078125-121.519531c-4.246093 0-8.300781 1.3125-11.734375 3.800781l-269.273437 194.464844c-13.613281-4.019531-27.984375-6.265625-42.886719-6.265625-36.183594 0-70.703125 12.96875-98.222656 36.40625-3.914063-2.757812-8.640625-4.40625-13.777344-4.40625-13.230469 0-24 10.769531-24 24 0 6.382812 2.542969 12.160156 6.625 16.464844-14.769531 23.933594-22.625 51.246094-22.625 79.535156 0 83.816406 68.183594 152 152 152 56.519531 0 107.144531-30.617188 133.726562-80.230469.753907.070313 1.496094.230469 2.273438.230469 13.230469 0 24-10.769531 24-24 0-8.335938-4.28125-15.679688-10.753906-19.984375 1.792968-9.449219 2.753906-18.847656 2.753906-28.015625 0-16.199219-2.609375-31.792969-7.320312-46.449219l195.417968-265.621093c2.519532-3.417969 3.902344-7.632813 3.902344-11.882813 0-11.054687-8.992188-20.046875-20.105469-20.046875zm-435.894531 240c4.40625 0 8 3.59375 8 8s-3.59375 8-8 8-8-3.59375-8-8 3.59375-8 8-8zm112 240c-74.992188 0-136-61.007812-136-136 0-25.761719 7.289062-50.617188 20.96875-72.304688 1 .128907 1.992188.304688 3.03125.304688 13.230469 0 24-10.769531 24-24 0-2.246094-.40625-4.390625-.992188-6.457031 24.808594-21.589844 56.144532-33.542969 88.992188-33.542969 74.992188 0 136 61.007812 136 136 0 7.910156-.792969 16.039062-2.304688 24.230469-12.144531 1.183593-21.695312 11.320312-21.695312 23.769531 0 6.679688 2.761719 12.71875 7.175781 17.078125-23.910156 43.890625-68.945312 70.921875-119.175781 70.921875zm136-80c-4.40625 0-8-3.59375-8-8s3.59375-8 8-8 8 3.59375 8 8-3.59375 8-8 8zm191.207031-377.558594-189.511719 257.597656c-15.582031-33.414062-42.863281-60.261718-76.664062-75.152343l260.503906-188.125c2.375-1.722657 6.464844.140625 6.464844 3.285156 0 .855469-.28125 1.707031-.792969 2.394531zm-153.550781 399.214844 120.0625-120.0625c3.128906 1.503906 6.585938 2.40625 10.28125 2.40625 13.230469 0 24-10.769531 24-24s-10.769531-24-24-24-24 10.769531-24 24c0 3.695312.902344 7.152344 2.40625 10.28125l-120.0625 120.0625zm130.34375-149.65625c4.40625 0 8 3.59375 8 8s-3.59375 8-8 8-8-3.59375-8-8 3.59375-8 8-8zm-13.65625-61.65625 16-16 11.3125 11.3125-16 16zm-96 96 88-88 11.3125 11.3125-88 88zm131.3125-172.6875-11.3125-11.3125 16-16 11.3125 11.3125zm-19.3125-3.3125 11.3125 11.3125-64 64-11.3125-11.3125zm-256-88 11.3125 11.3125-16 16-11.3125-11.3125zm-24 24 11.3125 11.3125-104 104-11.3125-11.3125zm11.3125 83.3125 104.0625-104.0625c3.128906 1.503906 6.585938 2.40625 10.28125 2.40625 13.230469 0 24-10.769531 24-24s-10.769531-24-24-24-24 10.769531-24 24c0 3.695312.902344 7.152344 2.40625 10.28125l-104.0625 104.0625zm114.34375-133.65625c4.40625 0 8 3.59375 8 8s-3.59375 8-8 8-8-3.59375-8-8 3.59375-8 8-8zm69.65625 13.65625-11.3125-11.3125 16-16 11.3125 11.3125zm-19.3125-3.3125 11.3125 11.3125-64 64-11.3125-11.3125zm-242.34375-2.34375h-16c0 17.648438-14.351562 32-32 32v16c17.648438 0 32 14.351562 32 32h16c0-17.648438 14.351562-32 32-32v-16c-17.648438 0-32-14.351562-32-32zm-8 53.519531c-3.558594-5.359375-8.167969-9.96875-13.519531-13.519531 5.359375-3.558594 9.96875-8.167969 13.519531-13.519531 3.558594 5.359375 8.160156 9.96875 13.519531 13.519531-5.359375 3.558594-9.960937 8.167969-13.519531 13.519531zm328 298.480469h-16c0 17.648438-14.351562 32-32 32v16c17.648438 0 32 14.351562 32 32h16c0-17.648438 14.351562-32 32-32v-16c-17.648438 0-32-14.351562-32-32zm-8 53.519531c-3.558594-5.359375-8.167969-9.96875-13.519531-13.519531 5.359375-3.558594 9.96875-8.167969 13.519531-13.519531 3.558594 5.359375 8.160156 9.96875 13.519531 13.519531-5.359375 3.558594-9.960937 8.167969-13.519531 13.519531zm0 0" fill="url(#linear0)"/></svg>