<svg height="500.584pt" viewBox="0 0 500.584 500.584" width="500.584pt" xmlns="http://www.w3.org/2000/svg" xmlns:xlink="http://www.w3.org/1999/xlink"><linearGradient id="linear0" gradientUnits="userSpaceOnUse" x1="250.2912" x2="250.2912" y1="500.5856" y2="0"><stop offset="0" stop-color="#9f2fff"/><stop offset="1" stop-color="#0bb1d3"/></linearGradient><path d="m388.585938 0c-51.523438 0-94.898438 35-107.914063 82.441406-9.390625-1.609375-18.808594-2.441406-28.085937-2.441406-92.632813 0-168 75.367188-168 168 0 7.566406.679687 14.96875 1.652343 22.28125-12.375 4.3125-25.300781 6.109375-37.734375 4.902344l-9.671875-.9375.9375 9.675781c1.375 14.167969-.9375 29-6.691406 42.863281-5.742187 13.863282-14.582031 25.976563-25.582031 35.039063l-7.496094 6.175781 7.503906 6.167969c11 9.0625 19.839844 21.167969 25.585938 35.039062 5.75 13.863281 8.0625 28.695313 6.6875 42.863281l-.9375 9.671876 9.671875-.933594c14.144531-1.375 29 .933594 42.863281 6.6875 13.863281 5.742187 25.976562 14.582031 35.039062 25.582031l6.171876 7.507813 6.167968-7.507813c9.0625-11 21.175782-19.839844 35.039063-25.582031 13.863281-5.753906 28.726562-8.0625 42.863281-6.6875l9.671875.933594-.9375-9.671876c-1.214844-12.527343.609375-25.527343 4.875-37.734374 7.328125.984374 14.742187 1.664062 22.320313 1.664062 92.628906 0 168-75.367188 168-168 0-9.28125-.84375-18.695312-2.441407-28.089844 47.441407-13.015625 82.441407-56.390625 82.441407-107.910156 0-61.761719-50.242188-112-112-112zm-228.953126 128h76.953126c4.414062 0 8 3.585938 8 8s-3.585938 8-8 8h-48c-13.234376 0-24 10.769531-24 24s10.765624 24 24 24h64c4.414062 0 8 3.585938 8 8s-3.585938 8-8 8h-146.488282c8.804688-32.175781 27.871094-60.078125 53.535156-80zm4.953126 208h40c4.414062 0 8 3.585938 8 8s-3.585938 8-8 8h-62.546876c-20.414062-21.6875-34.472656-49.304688-39.367187-80h109.914063c4.414062 0 8 3.585938 8 8s-3.585938 8-8 8h-48c-13.234376 0-24 10.769531-24 24s10.765624 24 24 24zm-62.890626-14.617188c16.464844 33.707032 43.808594 61.050782 77.503907 77.503907-10.277344 15.464843-27.832031 25.113281-46.613281 25.113281-30.875 0-56-25.128906-56-56 0-18.785156 9.644531-36.335938 25.109374-46.617188zm107.320313 123.050782c-13.953125-.394532-28.015625 2.757812-41.34375 8.285156-13.320313 5.511719-25.296875 13.511719-35.085937 23.378906-9.792969-9.859375-21.769532-17.859375-35.089844-23.378906-13.328125-5.527344-27.34375-8.574219-41.34375-8.285156.054687-13.890625-2.769532-28.019532-8.289063-41.34375-5.511719-13.320313-13.511719-25.296875-23.375-35.089844 9.855469-9.792969 17.855469-21.769531 23.375-35.089844 5.519531-13.324218 8.34375-27.453125 8.289063-41.34375 11.046875-.253906 22.207031-1.933594 32.992187-5.335937 1.632813 6.984375 3.726563 13.777343 6.199219 20.402343-21.273438 12.953126-34.757812 36.238282-34.757812 61.367188 0 39.703125 32.292968 72 72 72 25.125 0 48.414062-13.496094 61.367187-34.769531 6.605469 2.472656 13.390625 4.5625 20.359375 6.195312-3.503906 10.8125-5.34375 21.972657-5.296875 33.007813zm123.570313-172.433594h-16c-4.417969 0-8-3.585938-8-8s3.582031-8 8-8h87.589843c-1.550781 29.726562-11.609375 57.175781-27.886719 80h-107.703124c-4.417969 0-8-3.585938-8-8s3.582031-8 8-8h64c13.230468 0 24-10.769531 24-24s-10.769532-24-24-24zm71.558593-32h-87.558593c-13.234376 0-24 10.769531-24 24s10.765624 24 24 24h16c4.414062 0 8 3.585938 8 8s-3.585938 8-8 8h-64c-13.234376 0-24 10.769531-24 24s10.765624 24 24 24h94.542968c-27.746094 29.472656-66.976562 48-110.542968 48-35.027344 0-67.21875-12.023438-92.953126-32h44.953126c13.230468 0 24-10.769531 24-24s-10.769532-24-24-24h-40c-4.417969 0-8-3.585938-8-8s3.582031-8 8-8h48c13.230468 0 24-10.769531 24-24s-10.769532-24-24-24h-111.59375c-.144532-2.664062-.40625-5.296875-.40625-8 0-8.183594.828124-16.167969 2.085937-24h149.914063c13.230468 0 24-10.769531 24-24s-10.769532-24-24-24h-64c-4.417969 0-8-3.585938-8-8s3.582031-8 8-8h48c13.230468 0 24-10.769531 24-24s-10.769532-24-24-24h-51.480469c20.367187-10.152344 43.222656-16 67.480469-16 8.214843 0 16.574218.921875 24.917968 2.320312-.542968 4.496094-.917968 9.039063-.917968 13.679688 0 61.761719 50.238281 112 112 112 4.636718 0 9.183593-.375 13.679687-.921875.941406 5.664063 1.566406 11.296875 1.878906 16.921875zm-15.558593-32c-52.9375 0-96-43.0625-96-96s43.0625-96 96-96c52.933593 0 96 43.0625 96 96s-43.066407 96-96 96zm64-144v16c-4.417969 0-8 3.585938-8 8s3.582031 8 8 8v16c-13.234376 0-24-10.769531-24-24s10.765624-24 24-24zm-120 56c0 13.230469-10.769532 24-24 24v-16c4.414062 0 8-3.585938 8-8s-3.585938-8-8-8v-16c13.230468 0 24 10.769531 24 24zm120 32c0 13.230469-10.769532 24-24 24v-16c4.414062 0 8-3.585938 8-8s-3.585938-8-8-8c-4.417969 0-8 3.585938-8 8h-16c0-13.230469 10.765624-24 24-24 13.230468 0 24 10.769531 24 24zm-64-120v16c-4.417969 0-8 3.585938-8 8s3.582031 8 8 8v16c-13.234376 0-24-10.769531-24-24s10.765624-24 24-24zm-24 104c-13.234376 0-24 10.769531-24 24s10.765624 24 24 24c13.230468 0 24-10.769531 24-24s-10.769532-24-24-24zm0 32c-4.417969 0-8-3.585938-8-8s3.582031-8 8-8c4.414062 0 8 3.585938 8 8s-3.585938 8-8 8zm-24-88h-16v-16h16zm32 16h16v16h-16zm48-32h-16v-16h16zm-24 112h16v16h-16zm48 96h16v16h-16zm-32 120h-16v-16h16zm-16 16h16v16h-16zm16-16h16v16h-16zm-16 0v16h-16v-16zm-240-352v16h-16v-16zm-88 40v16h-16v-16zm-16 144h-16v-16h16zm32-128v-16h16v16zm-16 0h16v16h-16zm16-32v16h-16v-16zm0 0" fill="url(#linear0)"/></svg>