<svg height="496pt" viewBox="0 0 496 496" width="496pt" xmlns="http://www.w3.org/2000/svg" xmlns:xlink="http://www.w3.org/1999/xlink"><linearGradient id="linear0" gradientUnits="userSpaceOnUse" x1="248" x2="248" y1="496" y2="0"><stop offset="0" stop-color="#9f2fff"/><stop offset="1" stop-color="#0bb1d3"/></linearGradient><path d="m344 40c0-13.230469-10.769531-24-24-24h-161.472656c-3.320313-9.289062-12.113282-16-22.527344-16-13.230469 0-24 10.769531-24 24v202.382812c-64.304688 11.464844-112 67.617188-112 133.617188 0 74.992188 61.007812 136 136 136s136-61.007812 136-136c0-66-47.695312-122.152344-112-133.617188v-18.382812h136v40c0 13.230469 10.769531 24 24 24h176v-192h-152zm-216-16c0-4.414062 3.59375-8 8-8s8 3.585938 8 8v264h-16zm-97.960938 280h41.960938c4.40625 0 8 3.585938 8 8s-3.59375 8-8 8h-16c-13.230469 0-24 10.769531-24 24s10.769531 24 24 24h40c4.40625 0 8 3.585938 8 8s-3.59375 8-8 8h-77.585938c-1.574218-7.761719-2.414062-15.785156-2.414062-24 0-20.136719 5.121094-39.191406 14.039062-56zm201.738282 128h-71.777344c-4.40625 0-8-3.585938-8-8s3.59375-8 8-8h48c13.230469 0 24-10.769531 24-24s-10.769531-24-24-24h-24c-4.40625 0-8-3.585938-8-8s3.59375-8 8-8h71.632812c.175782 2.65625.367188 5.304688.367188 8 0 27.03125-9.089844 51.910156-24.222656 72zm21.71875-96h-69.496094c-13.230469 0-24 10.769531-24 24s10.769531 24 24 24h24c4.40625 0 8 3.585938 8 8s-3.59375 8-8 8h-48c-13.230469 0-24 10.769531-24 24s10.769531 24 24 24h57.3125c-21.410156 19.800781-49.929688 32-81.3125 32-52.128906 0-96.472656-33.472656-113-80h73c13.230469 0 24-10.769531 24-24s-10.769531-24-24-24h-40c-4.40625 0-8-3.585938-8-8s3.59375-8 8-8h16c13.230469 0 24-10.769531 24-24s-10.769531-24-24-24h-31.839844c17.214844-22.855469 42.457032-39.441406 71.839844-45.398438v61.398438h48v-61.398438c47.382812 9.613282 83.976562 46.894532 93.496094 93.398438zm-93.496094-304h160c4.40625 0 8 3.585938 8 8v153.480469c-2.519531-.90625-5.183594-1.480469-8-1.480469h-160zm160 176c4.40625 0 8 3.585938 8 8s-3.59375 8-8 8c-2.824219 0-5.488281.574219-8 1.480469v-17.480469zm160-112v160h-160c-4.40625 0-8-3.585938-8-8s3.59375-8 8-8c13.230469 0 24-10.769531 24-24v-120zm-16 32h-16v-16h16zm0 32h-16v-16h16zm0 32h-16v-16h16zm-288-144h16v16h-16zm32 0h104v16h-104zm0 0" fill="url(#linear0)"/></svg>