<svg height="496pt" viewBox="0 0 496 496" width="496pt" xmlns="http://www.w3.org/2000/svg" xmlns:xlink="http://www.w3.org/1999/xlink"><linearGradient id="linear0" gradientUnits="userSpaceOnUse" x1="248" x2="248" y1="496" y2="0"><stop offset="0" stop-color="#9f2fff"/><stop offset="1" stop-color="#0bb1d3"/></linearGradient><path d="m88 496c48.519531 0 88-39.480469 88-88s-39.480469-88-88-88-88 39.480469-88 88 39.480469 88 88 88zm0-160c39.703125 0 72 32.304688 72 72s-32.296875 72-72 72-72-32.304688-72-72 32.296875-72 72-72zm296 96c61.761719 0 112-50.238281 112-112s-50.238281-112-112-112-112 50.238281-112 112 50.238281 112 112 112zm0-208c52.9375 0 96 43.0625 96 96s-43.0625 96-96 96-96-43.0625-96-96 43.0625-96 96-96zm48-128h16c0-17.648438 14.351562-32 32-32v-16c-17.648438 0-32-14.351562-32-32h-16c0 17.648438-14.351562 32-32 32v16c17.648438 0 32 14.351562 32 32zm8-53.519531c3.558594 5.359375 8.160156 9.96875 13.519531 13.519531-5.359375 3.558594-9.960937 8.167969-13.519531 13.519531-3.558594-5.359375-8.167969-9.96875-13.519531-13.519531 5.351562-3.558594 9.960937-8.167969 13.519531-13.519531zm-88 141.519531h16c0-17.648438 14.351562-32 32-32v-16c-17.648438 0-32-14.351562-32-32h-16c0 17.648438-14.351562 32-32 32v16c17.648438 0 32 14.351562 32 32zm8-53.519531c3.558594 5.359375 8.160156 9.96875 13.519531 13.519531-5.359375 3.558594-9.960937 8.167969-13.519531 13.519531-3.558594-5.359375-8.167969-9.96875-13.519531-13.519531 5.351562-3.558594 9.960937-8.167969 13.519531-13.519531zm-104 213.519531c-17.648438 0-32-14.351562-32-32h-16c0 17.648438-14.351562 32-32 32v16c17.648438 0 32 14.351562 32 32h16c0-17.648438 14.351562-32 32-32zm-40 21.519531c-3.558594-5.359375-8.167969-9.96875-13.519531-13.519531 5.359375-3.558594 9.960937-8.167969 13.519531-13.519531 3.558594 5.359375 8.160156 9.96875 13.519531 13.519531-5.359375 3.558594-9.960937 8.167969-13.519531 13.519531zm64 114.480469h16c0-17.648438 14.351562-32 32-32v-16c-17.648438 0-32-14.351562-32-32h-16c0 17.648438-14.351562 32-32 32v16c17.648438 0 32 14.351562 32 32zm8-53.519531c3.558594 5.359375 8.160156 9.96875 13.519531 13.519531-5.359375 3.558594-9.960937 8.167969-13.519531 13.519531-3.558594-5.359375-8.167969-9.96875-13.519531-13.519531 5.351562-3.558594 9.960937-8.167969 13.519531-13.519531zm-208-34.480469v-16c4.414062 0 8-3.59375 8-8s-3.585938-8-8-8v-16c13.230469 0 24 10.769531 24 24s-10.769531 24-24 24zm-32 48c-13.230469 0-24-10.769531-24-24s10.769531-24 24-24 24 10.769531 24 24h-16c0-4.40625-3.585938-8-8-8s-8 3.59375-8 8 3.585938 8 8 8zm48-8h16c0 4.40625 3.585938 8 8 8s8-3.59375 8-8-3.585938-8-8-8v-16c13.230469 0 24 10.769531 24 24s-10.769531 24-24 24-24-10.769531-24-24zm216-144c0-13.230469 10.769531-24 24-24s24 10.769531 24 24h-16c0-4.40625-3.585938-8-8-8s-8 3.59375-8 8 3.585938 8 8 8v16c-13.230469 0-24-10.769531-24-24zm128 40c4.414062 0 8-3.59375 8-8h16c0 13.230469-10.769531 24-24 24s-24-10.769531-24-24h16c0 4.40625 3.585938 8 8 8zm-80 40h-16c0-4.40625-3.585938-8-8-8s-8 3.59375-8 8h-16c0-13.230469 10.769531-24 24-24s24 10.769531 24 24zm48-88h-16c0-13.230469 10.769531-24 24-24s24 10.769531 24 24h-16c0-4.40625-3.585938-8-8-8s-8 3.59375-8 8zm-336 160h16v16h-16zm64-56h-16v-16h16zm240-48h-16v-16h16zm8-72h-16v-16h16zm-8 112h16c0 4.40625 3.585938 8 8 8s8-3.59375 8-8-3.585938-8-8-8v-16c13.230469 0 24 10.769531 24 24s-10.769531 24-24 24-24-10.769531-24-24zm-224-72c83.816406 0 152-68.183594 152-152s-68.183594-152-152-152-152 68.183594-152 152 68.183594 152 152 152zm-129.976562-112h89.976562c4.414062 0 8 3.59375 8 8s-3.585938 8-8 8h-24c-13.230469 0-24 10.769531-24 24s10.769531 24 24 24h64c4.414062 0 8 3.59375 8 8v23.59375c-2.664062.160156-5.296875.40625-8 .40625-61.078125 0-112.847656-40.472656-129.976562-96zm262.015624-8h-108.039062c-4.414062 0-8-3.59375-8-8s3.585938-8 8-8h56c13.230469 0 24-10.769531 24-24s-10.769531-24-24-24h-24c-4.414062 0-8-3.59375-8-8s3.585938-8 8-8h71.089844c5.671875 14.953125 8.910156 31.089844 8.910156 48 0 11.039062-1.472656 21.71875-3.960938 32zm-12.101562-96h-63.9375c-13.230469 0-24 10.769531-24 24s10.769531 24 24 24h24c4.414062 0 8 3.59375 8 8s-3.585938 8-8 8h-56c-13.230469 0-24 10.769531-24 24s10.769531 24 24 24h103.089844c-16.714844 44.089844-55.617188 77.246094-103.089844 85.753906v-21.753906c0-13.230469-10.769531-24-24-24h-64c-4.414062 0-8-3.59375-8-8s3.585938-8 8-8h24c13.230469 0 24-10.769531 24-24s-10.769531-24-24-24h-93.753906c-1.398438-7.808594-2.246094-15.800781-2.246094-24 0-2.695312.246094-5.335938.40625-8h95.59375c13.230469 0 24-10.769531 24-24s-10.769531-24-24-24h-16c-4.414062 0-8-3.59375-8-8s3.585938-8 8-8h40c13.230469 0 24-10.769531 24-24s-10.769531-24-24-24h-47.863281c19.054687-10.183594 40.785156-16 63.863281-16 51.855469 0 97 29.199219 119.9375 72zm-207.394531-40h71.457031c4.414062 0 8 3.59375 8 8s-3.585938 8-8 8h-40c-13.230469 0-24 10.769531-24 24s10.769531 24 24 24h16c4.414062 0 8 3.59375 8 8s-3.585938 8-8 8h-93.753906c5.714844-31.878906 22.488281-59.945312 46.296875-80zm0 0" fill="url(#linear0)"/></svg>