<svg height="496pt" viewBox="-48 0 496 496" width="496pt" xmlns="http://www.w3.org/2000/svg" xmlns:xlink="http://www.w3.org/1999/xlink"><linearGradient id="linear0" gradientUnits="userSpaceOnUse" x1="200" x2="200" y1="496" y2="0"><stop offset="0" stop-color="#9f2fff"/><stop offset="1" stop-color="#0bb1d3"/></linearGradient><path d="m80.34375 351.984375-.558594 15.984375c-25.511718-.898438-46.472656-21.570312-47.730468-47.066406l15.984374-.78125c.847657 17.261718 15.039063 31.253906 32.304688 31.863281zm319.65625-279.984375c0 39.703125-32.304688 72-72 72-8.566406 0-16.847656-1.480469-24.734375-4.375l-21.511719 42.808594c3.964844 4.917968 6.246094 10.933594 6.246094 17.367187 0 7.421875-2.886719 14.40625-8.144531 19.664063l-4.542969 4.535156 8 8-32 32 15.03125 15.03125c8.679688 8.679688 13.65625 20.695312 13.65625 32.96875s-4.976562 24.289062-13.65625 32.96875l-10.253906 10.253906c1.878906 2.882813 4.046875 5.59375 6.535156 8.089844l33.375 33.375 4.6875-4.6875h3.3125c17.648438 0 32 14.351562 32 32v3.3125l-68.6875 68.6875h-3.3125c-17.648438 0-32-14.351562-32-32v-3.3125l4.6875-4.6875-88.6875-88.6875-8.808594 8.800781c-15.398437 15.398438-35.871094 23.886719-57.65625 23.886719-44.960937 0-81.535156-36.574219-81.535156-81.535156 0-21.785156 8.480469-42.257813 23.878906-57.65625l144.121094-144.121094 8 8 4.542969-4.535156c9.785156-9.792969 26.304687-10.328125 37.015625-1.863282l42.867187-21.417968c-2.929687-7.925782-4.425781-16.253906-4.425781-24.871094 0-39.703125 32.304688-72 72-72s72 32.296875 72 72zm-95.664062 2.9375 9.136718-4.5625 16.367188 16.378906-4.496094 8.941406c.878906.105469 1.746094.304688 2.65625.304688 13.230469 0 24-10.769531 24-24s-10.769531-24-24-24-24 10.769531-24 24c0 1 .214844 1.960938.335938 2.9375zm-42.816407 39.269531 24.359375 24.359375 24.472656-48.679687-.046874-.046875zm8.441407 56.03125 8.351562-16.613281-31.878906-31.882812-16.648438 8.3125zm-33.273438 85.761719-92.6875-92.6875-100.6875 100.6875 92.6875 92.6875zm-155.152344 128c15.984375 0 31.058594-5.742188 42.992188-16.160156l-92.375-92.367188c-10.410156 11.925782-16.152344 27-16.152344 42.992188 0 36.136718 29.398438 65.535156 65.535156 65.535156zm166.464844 60.6875 12.6875-12.6875-52.6875-52.6875c-4.273438-4.28125-11.726562-4.28125-16 0l-4.6875 4.6875zm.289062 22.335938c1.222657 6.410156 6.285157 11.464843 12.679688 12.6875l58.734375-58.734376c-1.222656-6.410156-6.289063-11.464843-12.679687-12.6875zm3.023438-92.398438c-11.648438-11.65625-18.402344-26.890625-19.222656-43.226562l-24.089844-24.085938-48.6875 48.6875 16.6875 16.6875 4.6875-4.6875c10.304688-10.3125 28.320312-10.3125 38.632812 0l52.679688 52.6875 12.6875-12.6875zm-11.3125-99.3125-20.6875 20.6875 28.6875 28.6875v3.3125c0 3.871094.488281 7.664062 1.34375 11.34375l5.6875-5.6875c5.695312-5.703125 8.96875-13.59375 8.96875-21.65625s-3.273438-15.953125-8.96875-21.65625zm20.6875-43.3125-92.6875-92.6875-12.6875 12.6875 92.6875 92.6875zm3.3125-19.3125 4.542969-4.535156c2.226562-2.242188 3.457031-5.199219 3.457031-8.351563 0-3.152343-1.222656-6.128906-3.457031-8.351562l-59.992188-59.984375c-4.460937-4.472656-12.246093-4.472656-16.695312 0l-4.542969 4.535156zm120-140.6875c0-30.871094-25.121094-56-56-56s-56 25.128906-56 56c0 6.097656 1.015625 11.984375 2.894531 17.640625l14.511719-7.25c-.902344-3.359375-1.40625-6.832031-1.40625-10.390625 0-22.054688 17.945312-40 40-40s40 17.945312 40 40-17.945312 40-40 40c-3.488281 0-6.878906-.488281-10.175781-1.351562l-7.296875 14.503906c5.609375 1.847656 11.441406 2.847656 17.472656 2.847656 30.878906 0 56-25.128906 56-56zm-192 184c0 26.472656-21.527344 48-48 48s-48-21.527344-48-48 21.527344-48 48-48 48 21.527344 48 48zm-16 0c0-17.648438-14.351562-32-32-32s-32 14.351562-32 32 14.351562 32 32 32 32-14.351562 32-32zm0 0" fill="url(#linear0)"/></svg>