<svg height="490.16pt" viewBox="0 0 490.16 490.16" width="490.16pt" xmlns="http://www.w3.org/2000/svg" xmlns:xlink="http://www.w3.org/1999/xlink"><linearGradient id="linear0" gradientUnits="userSpaceOnUse" x1="245.0776" x2="245.0776" y1="490.164" y2="0"><stop offset="0" stop-color="#9f2fff"/><stop offset="1" stop-color="#0bb1d3"/></linearGradient><path d="m181.617188 306.398438c12.292968 12.546874 26.496093 22.777343 42.214843 30.410156l-6.984375 14.390625c-17.375-8.429688-33.070312-19.734375-46.65625-33.589844zm-18.425782-22.804688-13.359375 8.8125c3.839844 5.824219 8.105469 11.480469 12.65625 16.800781l12.152344-10.40625c-4.121094-4.824219-7.976563-9.9375-11.449219-15.207031zm326.96875-83.59375c0 110.28125-89.71875 200-200 200-19.746094 0-38.808594-2.921875-56.832031-8.273438 1.648437 6.410157 3.886719 12.648438 6.855469 18.609376l4.113281 8.230468-8.710937 2.953125c-28.105469 9.410157-50.496094 31.808594-59.90625 59.90625l-2.917969 8.734375-8.242188-4.121094c-26.519531-13.222656-58.183593-13.222656-84.695312-.015624l-8.230469 4.113281-2.953125-8.710938c-9.410156-28.105469-31.808594-50.496093-59.90625-59.90625l-8.734375-2.917969 4.121094-8.242187c13.222656-26.527344 13.222656-58.183594.015625-84.695313l-4.1132815-8.230468 8.7109375-2.953125c28.105469-9.410157 50.496094-31.808594 59.90625-59.90625l2.917969-8.734375 8.242187 4.121094c5.976563 2.984374 12.214844 5.222656 18.632813 6.871093-5.355469-18.023437-8.273438-37.089843-8.273438-56.832031 0-110.28125 89.71875-200 200-200s200 89.71875 200 200zm-370.65625 104.167969c-34.257812 1.585937-61.34375 29.566406-61.34375 63.832031 0 35.289062 28.710938 64 64 64 34.382813 0 62.449219-27.28125 63.863282-61.320312-27.078126-16.582032-49.925782-39.433594-66.519532-66.511719zm96.183594 81.390625c-4.894531-1.964844-9.703125-4.117188-14.390625-6.460938-5.433594 38.863282-38.800781 68.902344-79.136719 68.902344-44.113281 0-80-35.886719-80-80 0-40.335938 30.039063-73.703125 68.894532-79.144531-2.34375-4.6875-4.488282-9.496094-6.460938-14.390625-8.21875-1.3125-16.226562-3.488282-23.921875-6.585938-11.207031 26.257813-32.382813 47.433594-58.640625 58.640625 10.648438 26.527344 10.648438 56.464844 0 82.953125 26.265625 11.214844 47.433594 32.382813 58.648438 58.648438 26.527343-10.664063 56.480468-10.648438 82.953124 0 11.214844-26.265625 32.382813-47.433594 58.640626-58.640625-3.105469-7.6875-5.273438-15.703125-6.585938-23.921875zm253.472656-143.085938c-20.574218-12.519531-44.542968-18.472656-75-18.472656-40.105468 0-62.785156 24.0625-84.71875 47.34375-19.707031 20.902344-38.320312 40.65625-67.28125 40.65625-30.113281 0-56.105468-23.136719-83.617187-47.625-16.351563-14.542969-33.160157-29.390625-50.550781-38.734375 12.511718 89.359375 89.40625 158.359375 182.167968 158.359375 86.839844 0 159.769532-60.488281 179-141.527344zm5-42.472656c0-101.457031-82.535156-184-184-184s-184 82.542969-184 184c0 2.382812.097656 4.753906.175782 7.113281 22.625 9.648438 43.046874 27.703125 62.839843 45.3125 25.175781 22.40625 48.960938 43.574219 72.984375 43.574219 22.054688 0 37.617188-16.511719 55.640625-35.632812 23.136719-24.542969 49.351563-52.367188 96.359375-52.367188 31.0625 0 56.214844 5.703125 78.152344 17.761719 1.191406-8.425781 1.847656-17.019531 1.847656-25.761719zm-128 80v16c8.816406 0 16 7.175781 16 16s-7.183594 16-16 16v16c17.648438 0 32-14.351562 32-32s-14.351562-32-32-32zm-8-224c-22.054687 0-40 17.945312-40 40h16c0-13.230469 10.769532-24 24-24 13.230469 0 24 10.769531 24 24h16c0-22.054688-17.945312-40-40-40zm-200 112c0 22.054688 17.945313 40 40 40v-16c-13.230468 0-24-10.769531-24-24s10.769532-24 24-24v-16c-22.054687 0-40 17.945312-40 40zm88-96c-4.417968 0-8-3.59375-8-8s3.582032-8 8-8c4.414063 0 8 3.59375 8 8h16c0-13.230469-10.769531-24-24-24-13.230468 0-24 10.769531-24 24s10.769532 24 24 24zm56 104c-17.648437 0-32 14.351562-32 32h16c0-8.824219 7.175782-16 16-16 8.816406 0 16 7.175781 16 16h16c0-17.648438-14.351562-32-32-32zm104-16c0 17.648438 14.351563 32 32 32v-16c-8.824218 0-16-7.175781-16-16s7.175782-16 16-16v-16c-17.648437 0-32 14.351562-32 32zm-120 96c0 13.230469-10.769531 24-24 24-13.230468 0-24-10.769531-24-24s10.769532-24 24-24c13.230469 0 24 10.769531 24 24zm-16 0c0-4.40625-3.585937-8-8-8-4.417968 0-8 3.59375-8 8 0 4.414062 3.582032 8 8 8 4.414063 0 8-3.585938 8-8zm120-104c0 13.230469-10.769531 24-24 24-13.230468 0-24-10.769531-24-24s10.769532-24 24-24c13.230469 0 24 10.769531 24 24zm-16 0c0-4.40625-3.585937-8-8-8-4.417968 0-8 3.59375-8 8s3.582032 8 8 8c4.414063 0 8-3.59375 8-8zm-112-40c13.230469 0 24 10.769531 24 24s-10.769531 24-24 24c-13.230468 0-24-10.769531-24-24s10.769532-24 24-24zm0 16c-4.417968 0-8 3.59375-8 8s3.582032 8 8 8c4.414063 0 8-3.59375 8-8s-3.585937-8-8-8zm64 216c0 13.230469-10.769531 24-24 24-13.230468 0-24-10.769531-24-24s10.769532-24 24-24c13.230469 0 24 10.769531 24 24zm-16 0c0-4.414062-3.585937-8-8-8-4.417968 0-8 3.585938-8 8s3.582032 8 8 8c4.414063 0 8-3.585938 8-8zm136-88v-16c-13.230468 0-24 10.769531-24 24s10.769532 24 24 24v-16c-4.417968 0-8-3.585938-8-8s3.582032-8 8-8zm-304 160v-16c-17.648437 0-32-14.351562-32-32h-16c0 26.472656 21.527344 48 48 48zm0 0" fill="url(#linear0)"/></svg>