<svg height="496pt" viewBox="0 0 496 496" width="496pt" xmlns="http://www.w3.org/2000/svg" xmlns:xlink="http://www.w3.org/1999/xlink"><linearGradient id="linear0" gradientUnits="userSpaceOnUse" x1="248" x2="248" y1="496" y2="0"><stop offset="0" stop-color="#9f2fff"/><stop offset="1" stop-color="#0bb1d3"/></linearGradient><path d="m488.6875 42.625c4.648438-4.648438 7.3125-11.082031 7.3125-17.65625 0-13.769531-11.199219-24.96875-24.96875-24.96875-6.671875 0-12.941406 2.59375-17.65625 7.3125l-62.0625 62.0625c-1.695312 1.695312-3.945312 2.625-6.34375 2.625-4.945312 0-8.96875-4.023438-8.96875-8.96875 0-2.359375.960938-4.671875 2.625-6.34375l14.0625-14.0625c4.648438-4.648438 7.3125-11.082031 7.3125-17.65625 0-13.769531-11.199219-24.96875-24.96875-24.96875-6.671875 0-12.941406 2.59375-17.65625 7.3125l-98.847656 98.839844c-29.757813 6.191406-58 27.75-74.710938 54.757812-5.632812-.558594-10.929687-.910156-15.816406-.910156-92.640625 0-168 75.367188-168 168s75.359375 168 168 168 168-75.367188 168-168c0-4.566406-.320312-9.496094-.808594-14.671875 27.472656-15.695313 47.976563-42.769531 54.578125-75.28125.039063-.191406.046875-.398437.085938-.589844l98.832031-98.832031c4.648438-4.648438 7.3125-11.082031 7.3125-17.65625 0-13.769531-11.199219-24.96875-24.96875-24.96875-6.671875 0-12.941406 2.59375-17.65625 7.3125l-30.0625 30.0625c-1.695312 1.695312-3.945312 2.625-6.34375 2.625-4.945312 0-8.96875-4.023438-8.96875-8.96875 0-2.359375.960938-4.671875 2.625-6.34375zm-454.503906 213.375h53.816406c4.40625 0 8 3.585938 8 8s-3.59375 8-8 8h-16c-13.230469 0-24 10.769531-24 24s10.769531 24 24 24h48c4.40625 0 8 3.585938 8 8s-3.59375 8-8 8h-32c-13.230469 0-24 10.769531-24 24s10.769531 24 24 24h16c4.40625 0 8 3.585938 8 8s-3.59375 8-8 8h-69.816406c-11.582032-21.449219-18.183594-45.960938-18.183594-72s6.601562-50.550781 18.183594-72zm236.214844 184h-62.398438c-4.40625 0-8-3.585938-8-8s3.59375-8 8-8h24c13.230469 0 24-10.769531 24-24s-10.769531-24-24-24h-48c-4.40625 0-8-3.585938-8-8s3.59375-8 8-8h132.542969c-6.75 31.375-23.277344 59.078125-46.144531 80zm49.601562-112c0 5.40625-.304688 10.742188-.855469 16h-135.144531c-13.230469 0-24 10.769531-24 24s10.769531 24 24 24h48c4.40625 0 8 3.585938 8 8s-3.59375 8-8 8h-24c-13.230469 0-24 10.769531-24 24s10.769531 24 24 24h41.648438c-23.617188 15.121094-51.585938 24-81.648438 24-51.007812 0-96.121094-25.335938-123.703125-64h59.703125c13.230469 0 24-10.769531 24-24s-10.769531-24-24-24h-16c-4.40625 0-8-3.585938-8-8s3.59375-8 8-8h32c13.230469 0 24-10.769531 24-24s-10.769531-24-24-24h-48c-4.40625 0-8-3.585938-8-8s3.59375-8 8-8h16c13.230469 0 24-10.769531 24-24s-10.769531-24-24-24h-43.703125c27.582031-38.664062 72.695313-64 123.703125-64 2.496094 0 5.121094.113281 7.832031.273438-3.238281 7.671874-5.574219 15.589843-6.695312 23.582031-4.328125 30.90625 3.816406 61.25 22.933593 85.441406 11.074219 14.007813 28.515626 22.046875 47.851563 22.046875 6.621094 0 13.285156-.929688 19.832031-2.769531 1.351563-.382813 2.78125-.574219 4.246094-.574219 8.664062 0 15.824219 7.0625 15.960938 15.742188l.09375 3.28125 5.210937 4.898437 3.375-.25c10.847656-.808594 21.269531-3.273437 31.101563-7.039063.144531 2.535157.257812 5.015626.257812 7.367188zm54.089844-93.144531c-8.058594 39.71875-40.210938 70.089843-79.457032 76.046875-3.953124-13.199219-16.265624-22.902344-30.632812-22.902344-2.9375 0-5.832031.398438-8.59375 1.175781-5.109375 1.441407-10.328125 2.167969-15.484375 2.167969-14.625 0-27.160156-5.671875-35.304687-15.96875-16.386719-20.726562-23.351563-46.757812-19.640626-73.296875 5.359376-38.246094 43.703126-76.207031 82.0625-81.230469 19.121094-2.496094 37.976563.535156 54.929688 8.824219 9.695312 4.742187 15.109375 15.40625 14.128906 27.832031-.335937 4.230469.175782 8.519532 1.527344 12.734375 2.832031 8.859375 9.671875 15.992188 18.703125 19.539063l1.214844.480468c11.066406 4.34375 18.480469 14.78125 18.449219 25.972657-.007813 6.195312-.648438 12.457031-1.902344 18.625zm42.878906-82.855469c6.671875 0 12.941406-2.59375 17.65625-7.3125l30.0625-30.0625c1.695312-1.695312 3.945312-2.625 6.34375-2.625 4.945312 0 8.96875 4.023438 8.96875 8.96875 0 2.359375-.960938 4.671875-2.625 6.34375l-85.632812 85.632812c-1.300782-16.425781-12.269532-31.265624-28.292969-37.5625l-1.226563-.488281c-4.519531-1.773437-8.015625-5.34375-9.359375-9.535156-.710937-2.222656-.984375-4.449219-.816406-6.597656 1.488281-18.832031-7.558594-35.898438-23.054687-43.472657-14.34375-7-29.847657-10.753906-45.777344-11.199218l85.472656-85.464844c1.695312-1.695312 3.945312-2.625 6.34375-2.625 4.945312 0 8.96875 4.023438 8.96875 8.96875 0 2.359375-.960938 4.671875-2.625 6.34375l-14.0625 14.0625c-4.648438 4.648438-7.3125 11.082031-7.3125 17.65625 0 13.769531 11.199219 24.96875 24.96875 24.96875 6.671875 0 12.941406-2.59375 17.65625-7.3125l62.0625-62.0625c1.695312-1.695312 3.945312-2.625 6.34375-2.625 4.945312 0 8.96875 4.023438 8.96875 8.96875 0 2.359375-.960938 4.671875-2.625 6.34375l-78.0625 78.0625c-4.648438 4.648438-7.3125 11.082031-7.3125 17.65625 0 13.769531 11.199219 24.96875 24.96875 24.96875zm-62.625 194.34375 80-80 11.3125 11.3125-80 80zm123.3125-148.6875-64 64-11.3125-11.3125 64-64zm-259.3125-147.3125 11.3125 11.3125-80 80-11.3125-11.3125zm16 32 64-64 11.3125 11.3125-64 64zm37.65625 149.65625h-16c0-4.414062-3.59375-8-8-8s-8 3.585938-8 8 3.59375 8 8 8v16c-13.230469 0-24-10.769531-24-24s10.769531-24 24-24 24 10.769531 24 24zm88-8c0 13.230469-10.769531 24-24 24v-16c4.40625 0 8-3.585938 8-8s-3.59375-8-8-8v-16c13.230469 0 24 10.769531 24 24zm-72-64c0 13.230469-10.769531 24-24 24v-16c4.40625 0 8-3.585938 8-8s-3.59375-8-8-8v-16c13.230469 0 24 10.769531 24 24zm32 112h16c0 13.230469-10.769531 24-24 24s-24-10.769531-24-24 10.769531-24 24-24v16c-4.40625 0-8 3.585938-8 8s3.59375 8 8 8 8-3.585938 8-8zm-96-80h-16v-16h16zm96 8h-16v-16h16zm0-48h-16v-16h16zm-112.839844 68.425781 8 16-14.3125 7.160157-8-16zm101.265625 18.734375-16-8 7.160157-14.3125 16 8zm-60.425781 24.839844h16v16h-16zm-149.871094 161.503906c20.472656 14.710938 44.632813 22.496094 69.871094 22.496094v16c-28.609375 0-56-8.824219-79.207031-25.503906zm0 0" fill="url(#linear0)"/></svg>