<svg height="493pt" viewBox="0 0 493 493.656" width="493pt" xmlns="http://www.w3.org/2000/svg" xmlns:xlink="http://www.w3.org/1999/xlink"><linearGradient id="linear0" gradientUnits="userSpaceOnUse" x1="247.146777" x2="247.146777" y1="493.656" y2="0"><stop offset="0" stop-color="#9f2fff"/><stop offset="1" stop-color="#0bb1d3"/></linearGradient><path d="m128.320312 397.65625h16c0-17.648438 15.984376-32 31.984376-32v-16c-16 0-31.984376-14.351562-31.984376-32h-16c0 17.648438-16.015624 32-32.015624 32v16c16 0 32.015624 14.351562 32.015624 32zm8-53.519531c3.5625 5.359375 8.160157 9.960937 13.519532 13.519531-5.359375 3.558594-9.964844 8.167969-13.519532 13.519531-3.558593-5.359375-8.167968-9.960937-13.527343-13.519531 5.359375-3.558594 9.96875-8.167969 13.527343-13.519531zm191.984376 133.519531h16c0-17.648438 14.351562-32 32-32v-16c-17.648438 0-32-14.351562-32-32h-16c0 17.648438-14.351563 32-32 32v16c17.648437 0 32 14.351562 32 32zm8-53.519531c3.558593 5.359375 8.160156 9.960937 13.519531 13.519531-5.359375 3.558594-9.96875 8.167969-13.519531 13.519531-3.558594-5.359375-8.167969-9.960937-13.519532-13.519531 5.351563-3.558594 9.960938-8.167969 13.519532-13.519531zm-288-306.480469c0 17.648438-14.351563 32-32 32v16c17.648437 0 32 14.351562 32 32h16c0-17.648438 14.351562-32 32-32v-16c-17.648438 0-32-14.351562-32-32zm21.519531 40c-5.359375 3.558594-9.960938 8.167969-13.519531 13.519531-3.558594-5.359375-8.167969-9.960937-13.519532-13.519531 5.359375-3.558594 9.96875-8.167969 13.519532-13.519531 3.558593 5.351562 8.160156 9.960937 13.519531 13.519531zm-5.710938 272.207031c10.40625 10.410157 24.695313 15.808594 41.238281 15.808594 5.402344 0 11.035157-.574219 16.859376-1.742187 22.476562-4.496094 45.261718-17.371094 64.140624-36.25 17.3125-17.320313 29.488282-37.894532 34.867188-58.542969 10.886719-2.273438 19.085938-11.9375 19.085938-23.480469 0-12.160156-9.121094-22.128906-20.855469-23.679688-2.648438-6.34375-6.289063-11.90625-10.910157-16.527343-27.59375-27.601563-82.433593-17.648438-122.242187 22.183593-17.3125 17.3125-29.480469 37.878907-34.855469 58.527344-10.914062 2.253906-19.136718 11.9375-19.136718 23.496094 0 12.167969 9.136718 22.144531 20.886718 23.6875 2.648438 6.34375 6.289063 11.894531 10.921875 16.519531zm160.191407-104.207031c0 4.414062-3.589844 8-8 8-4.40625 0-8-3.585938-8-8 0-4.417969 3.59375-8 8-8 4.410156 0 8 3.582031 8 8zm-126.695313-6.71875c33.582031-33.578125 78.265625-43.511719 99.617187-22.175781 2.480469 2.476562 4.414063 5.496093 6.09375 8.773437-6.613281 4.28125-11.015624 11.671875-11.015624 20.121094 0 9.246094 5.320312 17.207031 13.007812 21.207031-4.894531 17.335938-15.457031 34.679688-30.28125 49.503907-16.671875 16.671874-36.550781 27.992187-55.964844 31.871093-18.25 3.65625-33.746094.203125-43.648437-9.695312-2.480469-2.480469-4.425781-5.503907-6.105469-8.789063 6.601562-4.265625 10.992188-11.664062 10.992188-20.097656 0-9.242188-5.3125-17.183594-12.984376-21.191406 4.890626-17.335938 15.457032-34.6875 30.289063-49.527344zm-49.304687 70.71875c0-4.417969 3.59375-8 8-8 4.410156 0 8 3.582031 8 8 0 4.414062-3.589844 8-8 8-4.40625 0-8-3.585938-8-8zm-18.144532 74.152344c19.257813 19.246094 46 29.847656 75.320313 29.847656 24.105469 0 49.207031-7.113281 73-20.449219 3.921875 2.777344 8.664062 4.449219 13.824219 4.449219 13.234374 0 24-10.769531 24-24 0-2.535156-.503907-4.9375-1.230469-7.230469 1.75-1.578125 3.535156-3.105469 5.222656-4.800781 25.511719-25.511719 43.046875-57 49.375-88.679688 7.867187-39.328124-2.046875-76.304687-27.191406-101.441406-13.589844-13.59375-31.0625-22.863281-50.800781-27.121094-2.414063-10.695312-11.949219-18.726562-23.375-18.726562-11.175782 0-20.503907 7.703125-23.167969 18.054688-33.121094 5.554687-65.847657 23.03125-92.800781 49.976562-25.511719 25.511719-43.046876 57-49.375 88.679688-7.855469 39.328124 2.054687 76.304687 27.199218 101.441406zm162.144532-2.152344c-4.40625 0-8-3.585938-8-8 0-4.417969 3.59375-8 8-8 4.410156 0 8 3.582031 8 8 0 4.414062-3.589844 8-8 8zm-24-240c4.410156 0 8 3.582031 8 8 0 4.414062-3.589844 8-8 8-4.40625 0-8-3.585938-8-8 0-4.417969 3.59375-8 8-8zm-149.648438 143.847656c5.722656-28.617187 21.695312-57.207031 45-80.503906 24.273438-24.265625 53.480469-40.089844 82.921875-45.3125 3.808594 8.214844 12.085937 13.96875 21.726563 13.96875 9.402343 0 17.472656-5.488281 21.410156-13.367188 16.140625 3.734376 30.375 11.445313 41.453125 22.527344 21.296875 21.289063 29.617187 52.992188 22.824219 86.984375-5.71875 28.613281-21.695313 57.207031-45.007813 80.503907-1.160156 1.160156-2.382813 2.183593-3.574219 3.28125-3.777344-2.464844-8.273437-3.929688-13.105468-3.929688-13.230469 0-24 10.769531-24 24 0 2.222656.402343 4.34375.976562 6.390625-20.984375 11.496094-42.894531 17.609375-63.800781 17.609375-25.046875 0-47.785157-8.9375-64.007813-25.167969-21.296875-21.289062-29.609375-52.992187-22.816406-86.984375zm311.992188-293.503906 11.3125 11.3125-16 16-11.3125-11.3125zm-24 24 11.3125 11.3125-104 104-11.3125-11.3125zm115.3125 67.3125-16 16-11.3125-11.3125 16-16zm-128 128-11.3125-11.3125 104-104 11.3125 11.3125zm200-248-16 16-11.3125-11.3125 16-16zm-35.3125 12.6875 11.3125 11.3125-16 16-11.3125-11.3125zm-12.6875 35.3125-160 160-11.3125-11.3125 160-160zm4.6875-91.3125 11.3125 11.3125-16 16-11.3125-11.3125zm-24 24 11.3125 11.3125-16 16-11.3125-11.3125zm-24 24 11.3125 11.3125-160 160-11.3125-11.3125zm75.3125 259.3125-11.3125-11.3125 16-16 11.3125 11.3125zm-8 8-96 96-11.3125-11.3125 96-96zm-8 56-11.3125-11.3125 16-16 11.3125 11.3125zm-56 56-11.3125-11.3125 48-48 11.3125 11.3125zm8-104-11.3125-11.3125 16-16 11.3125 11.3125zm-19.3125-3.3125 11.3125 11.3125-48 48-11.3125-11.3125zm-192-320 11.3125 11.3125-16 16-11.3125-11.3125zm-24 24 11.3125 11.3125-96 96-11.3125-11.3125zm3.3125 67.3125-11.3125-11.3125 16-16 11.3125 11.3125zm-19.3125-3.3125 11.3125 11.3125-48 48-11.3125-11.3125zm-24-72 11.3125 11.3125-16 16-11.3125-11.3125zm-24 24 11.3125 11.3125-48 48-11.3125-11.3125zm0 0" fill="url(#linear0)"/></svg>