<svg height="496pt" viewBox="0 0 496 496.22903" width="496pt" xmlns="http://www.w3.org/2000/svg" xmlns:xlink="http://www.w3.org/1999/xlink"><linearGradient id="linear0" gradientUnits="userSpaceOnUse" x1="247.956398" x2="247.956398" y1="496.233028" y2="-.000572"><stop offset="0" stop-color="#9f2fff"/><stop offset="1" stop-color="#0bb1d3"/></linearGradient><path d="m360.140625 198.582031c9.511719-28.394531 9.730469-53.257812.066406-62.914062-5.992187-6.015625-16.800781-7.269531-24.800781-7.269531-29.871094 0-83.417969 18.664062-136.007812 71.261718-8.183594 8.183594-15.65625 16.730469-22.894532 25.761719-2.785156-.800781-5.664062-1.359375-8.707031-1.359375-17.648437 0-32 14.351562-32 32 0 8 3.058594 15.230469 7.921875 20.847656-17.136719 36.535156-20.761719 71.109375-8.328125 83.535156 5.992187 6.015626 16.800781 7.273438 24.800781 7.273438 29.863282 0 83.40625-18.664062 136.007813-71.265625 17.925781-17.921875 32.796875-36.992187 44.582031-56.703125 1 .136719 1.984375.3125 3.015625.3125 13.234375 0 24-10.769531 24-24 0-6.90625-2.976563-13.097656-7.65625-17.480469zm-192.34375 41.480469c8.816406 0 16 7.175781 16 16s-7.183594 16-16 16c-8.824219 0-16-7.175781-16-16s7.175781-16 16-16zm117.089844 45.085938c-49.144531 49.144531-97.878907 66.578124-124.695313 66.578124-8.898437 0-12.808594-1.90625-13.472656-2.578124-3.824219-3.824219-5.695312-27.6875 10.367188-63.0625 3.359374 1.199218 6.9375 1.976562 10.710937 1.976562 17.648437 0 32-14.351562 32-32 0-8.769531-3.550781-16.714844-9.277344-22.496094 6.40625-7.867187 13.007813-15.402344 20.191407-22.585937 49.136718-49.144531 97.878906-66.574219 124.695312-66.574219 8.894531 0 12.808594 1.902344 13.472656 2.582031 2.382813 2.367188 5.457032 17.90625-3.480468 45.242188-.535157-.042969-1.054688-.167969-1.601563-.167969-13.230469 0-24 10.765625-24 24 0 6.390625 2.546875 12.167969 6.640625 16.480469-11.015625 18.230469-24.863281 35.917969-41.550781 52.605469zm58.910156-61.085938c-4.414063 0-8-3.585938-8-8 0-4.417969 3.585937-8 8-8 4.417969 0 8 3.582031 8 8 0 4.414062-3.582031 8-8 8zm3.527344 35.550781 13.296875 8.886719c-11.773438 17.609375-25.832032 34.632812-41.800782 50.585938-8.175781 8.183593-16.796874 15.976562-25.613281 23.167968l-10.113281-12.394531c8.398438-6.855469 16.617188-14.285156 24.417969-22.085937 15.222656-15.214844 28.621093-31.425782 39.8125-48.160157zm-74.183594 78.046875 9.609375 12.800782c-7.910156 5.9375-16.03125 11.464843-24.144531 16.425781l-8.359375-13.640625c7.695312-4.703125 15.390625-9.953125 22.894531-15.585938zm110.066406-262.78125c-2.386719-10.746094-11.953125-18.816406-23.410156-18.816406-7.429687 0-14 3.46875-18.40625 8.789062-57.601563-2.589843-128.90625 31.21875-187.25 89.554688-86.925781 86.925781-115.636719 199.671875-64 251.3125 17.066406 17.0625 41.195313 25.847656 69.875 25.839844 9.886719 0 20.359375-1.113282 31.222656-3.226563 5.878907 7.105469 14.648438 11.730469 24.558594 11.730469 17.28125 0 31.304687-13.785156 31.890625-30.921875 32.972656-15.800781 65.300781-38.960937 93.765625-67.421875 86.929687-86.929688 115.640625-199.671875 64-251.3125-6.191406-6.191406-13.710937-11.359375-22.246094-15.527344zm-23.410156-2.816406c4.417969 0 8 3.582031 8 8 0 4.414062-3.582031 8-8 8-4.414063 0-8-3.585938-8-8 0-4.417969 3.585937-8 8-8zm-144 352c-8.824219 0-16-7.175781-16-16s7.175781-16 16-16c8.816406 0 16 7.175781 16 16s-7.183594 16-16 16zm114.34375-93.65625c-26.277344 26.269531-55.925781 47.789062-86.191406 62.765625-5.375-10.125-15.910157-17.109375-28.152344-17.109375-17.648437 0-32 14.351562-32 32 0 1.78125.242187 3.496094.519531 5.183594-35.238281 5.992187-64.496094-.472656-82.863281-18.839844-45.40625-45.410156-16.695313-147.992188 64-228.6875 52.761719-52.761719 118.503906-85.273438 170.410156-85.066406.320313 12.953125 10.902344 23.410156 23.933594 23.410156 9.023437 0 16.808594-5.066406 20.898437-12.441406 5.070313 2.902344 9.605469 6.257812 13.445313 10.097656 45.410156 45.40625 16.699219 147.992188-64 228.6875zm-125.636719-235.640625-8.753906-13.410156c5.320312-3.460938 10.671875-6.757813 16.03125-9.863281l8.03125 13.839843c-5.125 2.96875-10.238281 6.121094-15.308594 9.433594zm30.925782-17.9375-7.265626-14.246094c33.355469-17.015625 67.585938-27.34375 98.992188-29.882812l1.28125 15.953125c-29.335938 2.359375-61.496094 12.105468-93.007812 28.175781zm245.367187 160.226563c26.785156-78.53125 16.914063-151.027344-27.0625-194.960938-29.570313-29.550781-70.855469-43.191406-117.082031-42.0234375-120.742188.2382815-195.933594 7.3749995-302.496094 113.9335935l11.3125 11.3125c72.242188-72.238281 129.6875-96.808594 198.371094-105.09375-36.097656 14.308594-72.496094 36.132813-106.707032 65.015625-5.007812-3.25-10.933593-5.175781-17.335937-5.175781-17.648437 0-32 14.351562-32 32 0 6.109375 1.808594 11.757812 4.785156 16.613281-99.671875 111.824219-122.214843 253.578125-50.71875 325.007813 4.414063 4.417968 9.453125 8.53125 14.765625 12.464844-.496094 1.90625-.832031 3.855468-.832031 5.914062 0 13.230469 10.769531 24 24 24 7.273437 0 13.730469-3.320312 18.136719-8.457031 17.519531 5.695312 36.296875 8.625 55.960937 8.625 1.933594 0 3.917969-.144531 5.871094-.195313 130.59375-.453125 200.214844-12.839844 301.6875-114.316406l-11.3125-11.3125c-70.222656 70.222656-124.757813 95.941406-197.078125 105 46.007812-18.539062 91.992188-48.960938 132.574219-89.59375 27.816406-27.832031 51.050781-58.496094 69.289062-91.160156 2.839844.832031 5.777344 1.410156 8.871094 1.410156 17.648437 0 32-14.351562 32-32 0-11.394531-6.015625-21.335938-15-27.007812zm-361-140.992188c8.816406 0 16 7.183594 16 16s-7.183594 16-16 16c-8.824219 0-16-7.175781-16-16s7.175781-16 16-16zm-40 384c-4.414063 0-8-3.585938-8-8 0-4.417969 3.585937-8 8-8 4.417969 0 8 3.582031 8 8 0 4.414062-3.582031 8-8 8zm294.527344-105.5625c-83.046875 83.144531-193.078125 122.640625-270.582031 98.144531 0-.199219.054687-.390625.054687-.582031 0-13.234375-10.765625-24-24-24-5.359375 0-10.253906 1.832031-14.253906 4.804688-4.449219-3.335938-8.671875-6.796876-12.367188-10.496094-65.378906-65.324219-42.761719-197.199219 50.933594-302.589844 4.65625 2.648438 9.960937 4.28125 15.6875 4.28125 17.648437 0 32-14.351562 32-32 0-5.441406-1.496094-10.488281-3.894531-14.976562 59.375-50.023438 125.351562-77.824219 183.039062-80.992188 4.234375-.023438 8.503906-.03125 12.855469-.03125v-.273438c39.058594.375 73.601563 12.617188 98.625 37.617188 39.609375 39.574219 48.03125 106.085938 23.128906 178.832031-.59375-.035156-1.152343-.175781-1.753906-.175781-17.648437 0-32 14.351562-32 32 0 8.789062 3.5625 16.75 9.3125 22.535156-17.542969 31.480469-39.945313 61.039063-66.785156 87.902344zm89.472656-94.4375c-8.824219 0-16-7.175781-16-16s7.175781-16 16-16c8.816406 0 16 7.175781 16 16s-7.183594 16-16 16zm0 0" fill="url(#linear0)"/></svg>