<svg height="496pt" viewBox="0 0 496 496" width="496pt" xmlns="http://www.w3.org/2000/svg" xmlns:xlink="http://www.w3.org/1999/xlink"><linearGradient id="linear0" gradientUnits="userSpaceOnUse" x1="248" x2="248" y1="496" y2="0"><stop offset="0" stop-color="#9f2fff"/><stop offset="1" stop-color="#0bb1d3"/></linearGradient><path d="m240 392h-16c0-13.230469-10.769531-24-24-24s-24 10.769531-24 24h-16c0-22.054688 17.945312-40 40-40s40 17.945312 40 40zm-136-80c-13.230469 0-24-10.769531-24-24s10.769531-24 24-24v-16c-22.054688 0-40 17.945312-40 40s17.945312 40 40 40zm232-8c13.230469 0 24 10.769531 24 24s-10.769531 24-24 24-24-10.769531-24-24 10.769531-24 24-24zm-8 24c0 4.414062 3.585938 8 8 8s8-3.585938 8-8-3.585938-8-8-8-8 3.585938-8 8zm-160-176c0-13.230469 10.769531-24 24-24s24 10.769531 24 24-10.769531 24-24 24-24-10.769531-24-24zm16 0c0 4.414062 3.585938 8 8 8s8-3.585938 8-8-3.585938-8-8-8-8 3.585938-8 8zm88 48c0-13.230469 10.769531-24 24-24s24 10.769531 24 24-10.769531 24-24 24-24-10.769531-24-24zm16 0c0 4.414062 3.585938 8 8 8s8-3.585938 8-8-3.585938-8-8-8-8 3.585938-8 8zm-160 192c0 13.230469-10.769531 24-24 24s-24-10.769531-24-24 10.769531-24 24-24 24 10.769531 24 24zm-16 0c0-4.414062-3.585938-8-8-8s-8 3.585938-8 8 3.585938 8 8 8 8-3.585938 8-8zm184-112c0-17.648438-14.351562-32-32-32v16c8.816406 0 16 7.175781 16 16s-7.183594 16-16 16v16c17.648438 0 32-14.351562 32-32zm16 136c0 13.230469-10.769531 24-24 24s-24-10.769531-24-24 10.769531-24 24-24 24 10.769531 24 24zm-16 0c0-4.414062-3.585938-8-8-8s-8 3.585938-8 8 3.585938 8 8 8 8-3.585938 8-8zm-112-208c13.230469 0 24 10.769531 24 24s-10.769531 24-24 24v16c22.054688 0 40-17.945312 40-40s-17.945312-40-40-40-40 17.945312-40 40h16c0-13.230469 10.769531-24 24-24zm-8 128c-13.230469 0-24-10.769531-24-24s10.769531-24 24-24 24 10.769531 24 24-10.769531 24-24 24zm0-16c4.414062 0 8-3.585938 8-8s-3.585938-8-8-8-8 3.585938-8 8 3.585938 8 8 8zm-104-120c0-13.230469 10.769531-24 24-24s24 10.769531 24 24-10.769531 24-24 24-24-10.769531-24-24zm16 0c0 4.414062 3.585938 8 8 8s8-3.585938 8-8-3.585938-8-8-8-8 3.585938-8 8zm128 240c0 13.230469-10.769531 24-24 24s-24-10.769531-24-24 10.769531-24 24-24 24 10.769531 24 24zm-16 0c0-4.414062-3.585938-8-8-8s-8 3.585938-8 8 3.585938 8 8 8 8-3.585938 8-8zm296-304c0 61.175781-40.039062 113.710938-98.191406 130.449219 1.421875 9.648437 2.191406 19.511719 2.191406 29.550781 0 110.28125-89.71875 200-200 200s-200-89.71875-200-200 89.71875-200 200-200c10.039062 0 19.902344.769531 29.550781 2.191406 16.738281-58.152344 69.265625-98.191406 130.449219-98.191406 74.992188 0 136 61.007812 136 136zm-250.703125-34.769531c22.734375 5.289062 43.976563 14.449219 63.015625 26.769531h27.6875c4.414062 0 8-3.585938 8-8s-3.585938-8-8-8h-24c-13.230469 0-24-10.769531-24-24s10.769531-24 24-24h24c4.414062 0 8-3.585938 8-8s-3.585938-8-8-8h-57.726562c-15.175782 14.144531-26.699219 32.335938-32.976563 53.230469zm138.703125 194.769531c0-101.464844-82.535156-184-184-184s-184 82.535156-184 184 82.535156 184 184 184 184-82.535156 184-184zm86.046875-112h-70.046875c-13.230469 0-24-10.769531-24-24s10.769531-24 24-24h40c4.414062 0 8-3.585938 8-8s-3.585938-8-8-8h-40c-13.230469 0-24-10.769531-24-24s10.769531-24 24-24h61.335938c-21.296876-33.59375-58.703126-56-101.335938-56-21.769531 0-42.265625 5.792969-60 16h36c13.230469 0 24 10.769531 24 24s-10.769531 24-24 24h-24c-4.414062 0-8 3.585938-8 8s3.585938 8 8 8h24c13.230469 0 24 10.769531 24 24s-10.769531 24-24 24h-6.230469c31.933594 27.296875 55.167969 64.449219 65 106.703125 34.46875-10.359375 61.542969-35.054687 75.277344-66.703125zm9.953125-48c0-17.070312-3.640625-33.289062-10.089844-48h-69.910156c-4.414062 0-8 3.585938-8 8s3.585938 8 8 8h40c13.230469 0 24 10.769531 24 24s-10.769531 24-24 24h-40c-4.414062 0-8 3.585938-8 8s3.585938 8 8 8h75.671875c2.800781-10.214844 4.328125-20.9375 4.328125-32zm0 0" fill="url(#linear0)"/></svg>