<svg height="486pt" viewBox="0 0 486 486.488" width="486pt" xmlns="http://www.w3.org/2000/svg" xmlns:xlink="http://www.w3.org/1999/xlink"><linearGradient id="linear0" gradientUnits="userSpaceOnUse" x1="243.484" x2="243.484" y1="486.4864" y2="-.0024"><stop offset="0" stop-color="#9f2fff"/><stop offset="1" stop-color="#0bb1d3"/></linearGradient><path d="m435.484375 483.238281h16c0-17.644531 14.351563-32 32-32v-16c-17.648437 0-32-14.351562-32-32h-16c0 17.648438-14.351563 32-32 32v16c17.648437 0 32 14.355469 32 32zm8-53.519531c3.558594 5.359375 8.160156 9.96875 13.519531 13.519531-5.359375 3.5625-9.960937 8.167969-13.519531 13.523438-3.558594-5.363281-8.167969-9.96875-13.519531-13.523438 5.351562-3.558593 9.960937-8.167969 13.519531-13.519531zm-408-346.480469h16c0-17.644531 14.351563-32 32-32v-16c-17.648437 0-32-14.351562-32-32h-16c0 17.648438-14.351563 32-32 32v16c17.648437 0 32 14.355469 32 32zm8-53.519531c3.558594 5.351562 8.160156 9.960938 13.519531 13.519531-5.359375 3.5625-9.960937 8.167969-13.519531 13.523438-3.558594-5.355469-8.167969-9.960938-13.519531-13.523438 5.351562-3.558593 9.960937-8.167969 13.519531-13.519531zm344 109.519531v16c17.648437 0 32 14.355469 32 32h16c0-17.644531 14.351563-32 32-32v-16c-17.648437 0-32-14.351562-32-32h-16c0 17.648438-14.351563 32-32 32zm40-5.519531c3.558594 5.359375 8.160156 9.96875 13.519531 13.519531-5.359375 3.5625-9.960937 8.167969-13.519531 13.523438-3.558594-5.363281-8.167969-9.96875-13.519531-13.523438 5.351562-3.558593 9.960937-8.167969 13.519531-13.519531zm-344 213.519531c-17.648437 0-32-14.351562-32-32h-16c0 17.648438-14.351563 32-32 32v16c17.648437 0 32 14.355469 32 32h16c0-17.644531 14.351563-32 32-32zm-40 21.523438c-3.558594-5.363281-8.167969-9.96875-13.519531-13.523438 5.359375-3.558593 9.960937-8.167969 13.519531-13.519531 3.558594 5.359375 8.160156 9.96875 13.519531 13.519531-5.359375 3.5625-9.960937 8.167969-13.519531 13.523438zm40-293.523438c0 48.523438 39.480469 88 88 88v16c-57.34375 0-104-46.644531-104-104zm-9.703125 204.074219c-26.632812 0-53.265625-10.136719-73.539062-30.417969l11.3125-11.308593c34.3125 34.308593 90.144531 34.308593 124.457031 0l11.3125 11.308593c-20.28125 20.28125-46.914063 30.417969-73.542969 30.417969zm1.703125 139.925781v-16c48.519531 0 88-39.476562 88-88h16c0 57.347657-46.65625 104-104 104zm173.65625 67.25c12.496094-12.488281 21.496094-27.878906 26.34375-44.71875 9.289063-3.3125 16-12.113281 16-22.523437 0-9.269532-5.34375-17.238282-13.054687-21.230469-3.210938-22.09375-13.441407-42.75-29.289063-58.601563l-11.3125 11.3125c12.367187 12.371094 20.71875 28.195313 24.085937 45.242188-10.550781 2.519531-18.429687 11.960938-18.429687 23.269531 0 10.121094 6.3125 18.746094 15.183594 22.273438-4.328125 12.59375-11.328125 24.144531-20.839844 33.664062zm18.34375-75.25c4.414063 0 8 3.59375 8 8 0 4.410157-3.585937 8-8 8-4.417969 0-8-3.589843-8-8 0-4.40625 3.582031-8 8-8zm152 0h-16c0-48.519531-39.480469-88-88-88v-16c57.34375 0 104 46.65625 104 104zm67.238281-173.652343-11.3125 11.308593c-34.308594-34.308593-90.140625-34.308593-124.453125 0l-11.3125-11.308593c40.550781-40.554688 106.535157-40.554688 147.078125 0zm-163.238281-66.347657c0-14.328125 3.648437-28.222656 10.238281-40.773437 1.855469.457031 3.769532.773437 5.761719.773437 13.230469 0 24-10.765625 24-24 0-3.046875-.625-5.941406-1.671875-8.628906 14.640625-10.058594 31.65625-15.371094 49.671875-15.371094v-16c-21.550781 0-42.65625 6.839844-60.160156 19.25-3.511719-2.007812-7.511719-3.25-11.839844-3.25-13.230469 0-24 10.769531-24 24 0 5.3125 1.792969 10.175781 4.71875 14.160157-8.328125 15.234374-12.71875 32.320312-12.71875 49.839843zm16-72c4.414063 0 8 3.59375 8 8 0 4.410157-3.585937 8-8 8-4.417969 0-8-3.589843-8-8 0-4.40625 3.582031-8 8-8zm-101.65625 47.832031c-19.640625-19.636718-30.464844-45.757812-30.464844-73.535156 0-27.78125 10.816407-53.894531 30.464844-73.535156l11.3125 11.3125c-16.625 16.625-25.777344 38.71875-25.777344 62.222656s9.144531 45.601563 25.777344 62.226563zm-194.34375 40.167969c-13.230469 0-24 10.769531-24 24 0 13.234375 10.769531 24 24 24s24-10.765625 24-24c0-13.230469-10.769531-24-24-24zm0 32c-4.417969 0-8-3.589843-8-8 0-4.40625 3.582031-8 8-8 4.414063 0 8 3.59375 8 8 0 4.410157-3.585937 8-8 8zm144-64c13.230469 0 24-10.765625 24-24 0-13.230469-10.769531-24-24-24s-24 10.769531-24 24c0 13.234375 10.769531 24 24 24zm0-32c4.414063 0 8 3.59375 8 8 0 4.410157-3.585937 8-8 8-4.417969 0-8-3.589843-8-8 0-4.40625 3.582031-8 8-8zm-32 176c0-13.230469-10.769531-24-24-24s-24 10.769531-24 24c0 13.234375 10.769531 24 24 24s24-10.765625 24-24zm-32 0c0-4.40625 3.582031-8 8-8 4.414063 0 8 3.59375 8 8 0 4.410157-3.585937 8-8 8-4.417969 0-8-3.589843-8-8zm96-120c-13.230469 0-24 10.769531-24 24 0 4.777344 1.441406 9.203125 3.847656 12.945313-28.457031 33.175781-36.289062 70.617187-17.839843 89.054687 5.839843 5.851563 13.878906 9.027344 23.359374 9.664063 3.214844 9.464844 12.097657 16.335937 22.632813 16.335937 13.230469 0 24-10.765625 24-24 0-1.957031-.304687-3.839843-.753906-5.664062 10.089843-5.957031 19.921875-13.519531 28.746093-22.34375 15.96875-15.964844 27.671876-34.460938 32.960938-52.078125 5.796875-19.320313 3.320312-35.625-6.960938-45.90625-14.761718-14.757813-41.769531-12.839844-70.03125 4.210937-4.25-3.824219-9.808593-6.21875-15.960937-6.21875zm0 16c4.414063 0 8 3.59375 8 8 0 4.410157-3.585937 8-8 8-4.417969 0-8-3.589843-8-8 0-4.40625 3.582031-8 8-8zm8 120c-4.417969 0-8-3.589843-8-8 0-4.40625 3.582031-8 8-8 4.414063 0 8 3.59375 8 8 0 4.410157-3.585937 8-8 8zm66.679687-122.679687c5.832032 5.839844 6.910157 16.777344 2.945313 30-4.539063 15.128906-14.816406 31.234375-28.945313 45.363281-8.089843 8.078125-17.078124 14.949219-26.238281 20.269531-4.035156-3.0625-8.992187-4.953125-14.441406-4.953125-10.304687 0-19.039063 6.5625-22.433594 15.699219-4.328125-.410156-8.902343-1.664062-12.246093-5.015625-11.890626-11.898437-3.023438-42.195313 19.230468-67.984375 2.359375.78125 4.832032 1.300781 7.449219 1.300781 13.230469 0 24-10.765625 24-24 0-1.292969-.183594-2.535156-.382813-3.78125 21.390626-13.042969 41.894532-16.050781 51.0625-6.898437zm149.320313 98.679687c0-13.230469-10.769531-24-24-24s-24 10.769531-24 24c0 13.234375 10.769531 24 24 24s24-10.765625 24-24zm-32 0c0-4.40625 3.582031-8 8-8 4.414063 0 8 3.59375 8 8 0 4.410157-3.585937 8-8 8-4.417969 0-8-3.589843-8-8zm0 0" fill="url(#linear0)"/></svg>