<svg height="499pt" viewBox="-1 0 499 499.312" width="499pt" xmlns="http://www.w3.org/2000/svg" xmlns:xlink="http://www.w3.org/1999/xlink"><linearGradient id="linear0" gradientUnits="userSpaceOnUse" x1="248.156" x2="248.156" y1="499.312" y2="-.0008"><stop offset="0" stop-color="#9f2fff"/><stop offset="1" stop-color="#0bb1d3"/></linearGradient><path d="m472.15625 435.3125h-8v-144h16v-80h-157.488281c-4.160157-8.726562-10.488281-16.207031-18.3125-21.746094l60.640625-49.664062-8.59375-8.589844 12.691406-12.6875 16 16 35.308594-35.3125-99.308594-99.3125-35.3125 35.3125 16 16-12.6875 12.6875-8.347656-8.34375-51.445313 57.824219-39.839843-94.167969h-5.304688c-83.816406 0-152 68.183594-152 152v40h-16v80h16v144h-8c-13.230469 0-24 10.765625-24 24v40h496v-40c0-13.234375-10.769531-24-24-24zm-96 0v-112h72v112zm88-208v16h-120v16h120v16h-152.878906c10.398437-10.167969 16.878906-24.335938 16.878906-40 0-2.726562-.265625-5.382812-.640625-8zm-152 8c0 22.054688-17.945312 40-40 40s-40-17.945312-40-40 17.945312-40 40-40 40 17.945312 40 40zm-3.753906-200 12.691406-12.6875 76.6875 76.6875-12.6875 12.6875-4.691406-4.6875-67.308594-67.3125zm4.691406 27.3125 44.6875 44.6875-12.6875 12.6875-44.691406-44.6875zm-31.65625 16.34375 59.75 59.75-52.574219 43.074219c-5.210937-1.609375-10.730469-2.480469-16.457031-2.480469-4.914062 0-9.65625.703125-14.199219 1.894531l-21.753906-51.40625zm-38.210938 108.496094c-3.335937 2.023437-6.445312 4.375-9.277343 7.03125l-147.3125-117.855469c23.589843-24.289063 56.136719-39.847656 92.261719-41.226563zm-195.070312-16.152344c0-31.023438 10.519531-59.585938 28.070312-82.488281l147.714844 118.160156c-.832031 1.40625-1.59375 2.847656-2.296875 4.328125h-173.488281zm168.640625 56c-.375 2.617188-.640625 5.273438-.640625 8 0 15.664062 6.480469 29.832031 16.878906 40h-200.878906v-16h168v-16h-168v-16zm231.359375 64v16h-88v128h-48v-128h-128v128h-48v-128h-88v-16zm-152 144h-96v-112h96zm-248-112h72v112h-72zm432 160h-464v-24c0-4.417969 3.582031-8 8-8h448c4.414062 0 8 3.582031 8 8zm-208-272c-13.230469 0-24 10.765625-24 24 0 13.230469 10.769531 24 24 24s24-10.769531 24-24c0-13.234375-10.769531-24-24-24zm0 32c-4.417969 0-8-3.585938-8-8 0-4.417969 3.582031-8 8-8 4.414062 0 8 3.582031 8 8 0 4.414062-3.585938 8-8 8zm-208-64h16v16h-16zm32 0h16v16h-16zm48 0v16h-16v-16zm272 224h16v16h-16zm0-32h16v16h-16zm16-32v16h-16v-16zm-152 80h-16v-16h16zm0-32h-16v-16h16zm0-32h-16v-16h16zm-192 48h16v16h-16zm0-32h16v16h-16zm16-32v16h-16v-16zm0 0" fill="url(#linear0)"/></svg>