<svg height="496pt" viewBox="0 0 496 496" width="496pt" xmlns="http://www.w3.org/2000/svg" xmlns:xlink="http://www.w3.org/1999/xlink"><linearGradient id="linear0" gradientUnits="userSpaceOnUse" x1="248" x2="248" y1="496" y2="0"><stop offset="0" stop-color="#9f2fff"/><stop offset="1" stop-color="#0bb1d3"/></linearGradient><path d="m24 48c.992188 0 1.945312-.175781 2.902344-.296875l67.851562 135.679687c-4.160156 4.320313-6.753906 10.160157-6.753906 16.617188 0 13.230469 10.769531 24 24 24 3.089844 0 6.023438-.640625 8.734375-1.703125l74.480469 85.933594c-1.992188 3.488281-3.214844 7.472656-3.214844 11.769531 0 6.457031 2.59375 12.296875 6.742188 16.609375l-55.742188 111.496094c-12.761719.535156-23 11-23 23.894531 0 13.230469 10.769531 24 24 24 10.414062 0 19.207031-6.703125 22.527344-16h218.953125c3.3125 9.296875 12.113281 16 22.519531 16 13.230469 0 24-10.769531 24-24s-10.769531-24-24-24c-1.351562 0-2.664062.183594-3.960938.398438l-58.117187-104.597657c3.734375-4.242187 6.078125-9.730469 6.078125-15.800781 0-8.113281-4.070312-15.273438-10.246094-19.617188l27.925782-100.558593c9.671874-.679688 17.710937-7.046875 20.847656-15.832031h58.953125c2.304687 6.464843 7.230469 11.664062 13.566406 14.222656-4.125 50.289062-21.382813 84.273437-30.757813 99.335937-2.601562-.949219-5.367187-1.550781-8.289062-1.550781-13.230469 0-24 10.769531-24 24s10.769531 24 24 24 24-10.769531 24-24c0-4.40625-1.28125-8.488281-3.359375-12.03125 10.984375-16.960938 30.039063-53.753906 34.40625-109.144531 9.785156-3.03125 16.953125-12.054688 16.953125-22.824219 0-10.984375-7.457031-20.160156-17.535156-23-7.296875-57.945312-40.402344-96.03125-56.503906-111.390625 1.296874-2.953125 2.039062-6.195313 2.039062-9.609375 0-13.230469-10.769531-24-24-24s-24 10.769531-24 24 10.769531 24 24 24c3.976562 0 7.664062-1.0625 10.96875-2.777344 14.574219 13.882813 44.582031 48.328125 51.503906 100.777344-6.074218 2.640625-10.761718 7.734375-13 14h-58.945312c-3.3125-9.296875-12.113282-16-22.527344-16-4.640625 0-8.9375 1.382812-12.609375 3.664062l-84.804687-67.847656c.855468-2.457031 1.414062-5.0625 1.414062-7.816406 0-13.230469-10.769531-24-24-24s-24 10.769531-24 24c0 2.871094.59375 5.59375 1.519531 8.152344l-101.214843 83.351562c-.6875-.40625-1.375-.800781-2.105469-1.144531l11.511719-115.128906c10.472656-2.574219 18.289062-11.972657 18.289062-23.230469 0-13.230469-10.769531-24-24-24s-24 10.769531-24 24c0 9.566406 5.671875 17.792969 13.800781 21.640625l-11.007812 110.046875-65.546875-131.070312c4.160156-4.320313 6.753906-10.160157 6.753906-16.617188 0-13.230469-10.769531-24-24-24s-24 10.769531-24 24 10.769531 24 24 24zm376 0c-4.40625 0-8-3.59375-8-8s3.59375-8 8-8 8 3.59375 8 8-3.59375 8-8 8zm-152 64c4.640625 0 8.9375-1.382812 12.609375-3.664062l84.804687 67.847656c-.855468 2.464844-1.414062 5.0625-1.414062 7.816406 0 8.113281 4.070312 15.273438 10.246094 19.617188l-27.925782 100.558593c-9.089843.640625-16.800781 6.265625-20.296874 14.238281l-66.992188-4.789062c-2.816406-10.128906-12.023438-17.625-23.03125-17.625-3.089844 0-6.023438.640625-8.734375 1.703125l-74.480469-85.933594c1.992188-3.488281 3.214844-7.472656 3.214844-11.769531 0-2.871094-.59375-5.59375-1.519531-8.152344l101.214843-83.351562c3.609376 2.175781 7.785157 3.503906 12.304688 3.503906zm-89.535156 340.96875 54.632812-109.265625c.957032.121094 1.902344.296875 2.902344.296875 9.816406 0 18.265625-5.945312 21.976562-14.40625l67 4.789062c2.808594 10.121094 12.007813 17.617188 23.023438 17.617188 1.351562 0 2.664062-.183594 3.960938-.398438l58.109374 104.597657c-2 2.273437-3.566406 4.890625-4.597656 7.800781h-218.945312c-1.582032-4.433594-4.390625-8.230469-8.0625-11.03125zm57.535156-140.96875c4.40625 0 8 3.59375 8 8s-3.59375 8-8 8-8-3.59375-8-8 3.59375-8 8-8zm112 24c-4.40625 0-8-3.59375-8-8s3.59375-8 8-8 8 3.59375 8 8-3.59375 8-8 8zm-224-136c0-4.40625 3.59375-8 8-8s8 3.59375 8 8-3.59375 8-8 8-8-3.59375-8-8zm40 280c-4.40625 0-8-3.59375-8-8s3.59375-8 8-8 8 3.59375 8 8-3.59375 8-8 8zm272-8c0 4.40625-3.59375 8-8 8s-8-3.59375-8-8 3.59375-8 8-8 8 3.59375 8 8zm8-136c-4.40625 0-8-3.59375-8-8s3.59375-8 8-8 8 3.59375 8 8-3.59375 8-8 8zm48-144c-4.40625 0-8-3.59375-8-8s3.59375-8 8-8 8 3.59375 8 8-3.59375 8-8 8zm-104-16c4.40625 0 8 3.59375 8 8s-3.59375 8-8 8-8-3.59375-8-8 3.59375-8 8-8zm-120-96c4.40625 0 8 3.59375 8 8s-3.59375 8-8 8-8-3.59375-8-8 3.59375-8 8-8zm-120-48c4.40625 0 8 3.59375 8 8s-3.59375 8-8 8-8-3.59375-8-8 3.59375-8 8-8zm-104-16c4.40625 0 8 3.59375 8 8s-3.59375 8-8 8-8-3.59375-8-8 3.59375-8 8-8zm384 96v16h-16v-16zm-120 72h-16v-16h16zm-72 56h-16v-16h16zm-144 80h-16v-16h16zm32 72v-16h16v16zm-16-16v16h-16v-16zm16 0h-16v-16h16zm-16 32v-16h16v16zm240-376h-16v-16h16zm-16 32v-16h16v16zm16-16v-16h16v16zm-16-16v16h-16v-16zm152 360v-16h16v16zm-448-256h16v16h-16zm280 248h16v16h-16zm-64 48h16v16h-16zm0 0" fill="url(#linear0)"/></svg>