<svg height="496pt" viewBox="0 0 496 496" width="496pt" xmlns="http://www.w3.org/2000/svg" xmlns:xlink="http://www.w3.org/1999/xlink"><linearGradient id="linear0" gradientUnits="userSpaceOnUse" x1="248" x2="248" y1="496" y2="0"><stop offset="0" stop-color="#9f2fff"/><stop offset="1" stop-color="#0bb1d3"/></linearGradient><path d="m303.152344 273.472656 9.246094 13.054688c-8.191407 5.800781-16.71875 11.3125-25.359376 16.375l-8.09375-13.804688c8.246094-4.824218 16.390626-10.089844 24.207032-15.625zm43.65625-36.839844c-10.359375 10.359376-21.488282 20.128907-33.054688 29.03125l9.75 12.679688c12.128906-9.320312 23.777344-19.542969 34.625-30.398438 5.992188-5.992187 11.855469-12.289062 17.414063-18.707031l-12.09375-10.476562c-5.320313 6.132812-10.921875 12.140625-16.640625 17.871093zm-346.808594 235.367188v-1.367188l34.113281-96.65625c9.703125-27.496093 35.824219-45.976562 64.984375-45.976562 1.941406 0 3.855469.136719 5.757813.296875l20.847656-31.273437-7.320313-7.328126 10.183594-21.816406-59.78125-59.78125c-16.289062 7.8125-33.714844 13.261719-51.648437 15.824219l-10.5625 1.503906 1.503906-10.5625c5.402344-37.816406 23.25-73.511719 50.265625-100.519531 22.144531-22.152344 51.59375-34.34375 82.914062-34.34375h10.742188v10.742188c0 29.585937-11 57.417968-30.871094 79.082031l49.160156 15.128906c15.605469-25.210937 34.015626-48.570313 55.136719-69.6875 54.054688-54.066406 122.253907-90.5625 197.214844-105.554687l49.359375-9.710938c13.230469 0 24 10.769531 24 24l-.160156 1.566406-9.558594 47.792969c-14.992188 74.960937-51.488281 143.160156-105.546875 197.214844-23 23-48.621094 42.792969-76.429687 59.226562l13.863281 45.070313c21.664062-19.871094 49.496093-30.871094 79.089843-30.871094h10.742188v10.742188c0 31.320312-12.191406 60.769531-34.34375 82.914062-27.007812 27.007812-62.710938 44.863281-100.519531 50.265625l-10.5625 1.503906 1.503906-10.5625c2.5625-17.933593 8.011719-35.359375 15.824219-51.648437l-57.230469-57.230469-16.367187 7.640625-7.328126-7.320312-31.273437 20.847656c.160156 1.894531.296875 3.808594.296875 5.75 0 29.160156-18.480469 55.273437-45.976562 64.984375l-96.65625 34.113281h-1.367188c-13.230469 0-24-10.769531-24-24zm87.832031-100.71875-20.121093 57.007812 57.007812-20.121093c11.539062-4.070313 19.28125-15.023438 19.28125-27.265625 0-15.933594-12.96875-28.902344-28.902344-28.902344-12.242187 0-23.195312 7.742188-27.265625 19.28125zm121.863281-12.90625 54.585938-25.472656c2.101562-.980469 4.152344-2.054688 6.238281-3.078125l-22.886719-22.886719c-17.703124 14.917969-38.960937 24.351562-61.738281 27.628906zm-48.269531-48.261719c3.285157-22.777343 12.710938-44.035156 27.628907-61.746093l-22.878907-22.878907c-1.015625 2.078125-2.097656 4.136719-3.078125 6.238281l-25.472656 54.585938zm110.542969-86.082031c-24.320312.632812-47.097656 10.410156-64.367188 27.679688-8.394531 8.394531-15.144531 17.96875-20.289062 28.289062l28.6875 28.6875c10.320312-5.136719 19.894531-11.894531 28.289062-20.289062 17.269532-17.269532 27.039063-40.046876 27.679688-64.367188zm-95.65625 95.65625c8.0625-.609375 15.917969-2.207031 23.511719-4.542969l-18.96875-18.96875c-2.335938 7.59375-3.933594 15.449219-4.542969 23.511719zm105.582031 150.417969c10.601563-2.289063 20.929688-5.707031 30.847657-10.050781l-20.796876-20.796876c-4.34375 9.917969-7.769531 20.246094-10.050781 30.847657zm43.761719-80.449219c-10.265625 10.265625-19.007812 21.953125-26.152344 34.535156l28.296875 28.296875c12.589844-7.144531 24.269531-15.878906 34.535157-26.152343 17.847656-17.847657 28.207031-41.183594 29.511718-66.199219-25.007812 1.3125-48.34375 11.671875-66.191406 29.519531zm-35.617188-51.832031c-6.238281 3.335937-12.550781 6.574219-19 9.582031l-32.949218 15.378906 49.671875 49.671875c5.183593-8.640625 11.117187-16.824219 17.695312-24.480469zm99.792969-303.304688 71.640625 71.640625c3.605469-11.777344 6.679688-23.761718 9.121094-35.945312l9.375-46.871094c-.320312-3.886719-3.425781-7-7.3125-7.320312l-46.878906 9.375c-12.183594 2.441406-24.160156 5.523437-35.945313 9.121093zm-215.945312 176.054688 26.289062 26.289062c20.410157-18.574219 46.550781-28.863281 74.328125-28.863281h13.496094v13.496094c0 27.785156-10.289062 53.929687-28.863281 74.328125l26.289062 26.289062c30.820313-16.855469 59.03125-37.882812 84-62.847656 38.757813-38.761719 68.09375-85.113281 86.4375-136.089844l-83.039062-83.039062c-50.976563 18.335937-97.328125 47.679687-136.089844 86.4375-24.964844 24.96875-45.992187 53.179687-62.847656 84zm-130.382813-50.382813 28.296875 28.296875c12.589844-7.144531 24.269531-15.878906 34.535157-26.152343 17.847656-17.847657 28.207031-41.183594 29.511718-66.199219-25.015625 1.304687-48.351562 11.664062-66.199218 29.511719-10.257813 10.273437-19 21.960937-26.144532 34.542968zm13.238282 35.863282-20.796876-20.796876c-4.34375 9.917969-7.769531 20.246094-10.050781 30.847657 10.601563-2.28125 20.929688-5.707031 30.847657-10.050781zm79.019531 56.394531 12.832031-27.496094c4.109375-8.816406 8.597656-17.410156 13.335938-25.839844l-53.90625-16.585937c-7.65625 6.585937-15.839844 12.511718-24.480469 17.695312zm-14.074219 79.429687c19.824219 6.914063 35.519531 22.601563 42.425781 42.425782l23.328125-15.550782-50.203125-50.203125zm-105.609375 141.265625c.496094 3.503907 3.28125 6.28125 6.777344 6.777344l93.839843-33.121094c17.472657-6.167969 30.058594-21.015625 33.929688-38.625-5.175781 6.753907-12.199219 12.121094-20.585938 15.070313l-88.550781 31.257812 31.253907-88.550781c2.960937-8.386719 8.320312-15.402344 15.074218-20.585937-17.609375 3.871093-32.449218 16.457031-38.617187 33.929687zm271.921875-329.144531c0-35.289062 28.710938-64 64-64s64 28.710938 64 64-28.710938 64-64 64-64-28.710938-64-64zm16 0c0 26.472656 21.527344 48 48 48s48-21.527344 48-48-21.527344-48-48-48-48 21.527344-48 48zm16 0c0-17.648438 14.351562-32 32-32s32 14.351562 32 32-14.351562 32-32 32-32-14.351562-32-32zm16 0c0 8.824219 7.175781 16 16 16s16-7.175781 16-16-7.175781-16-16-16-16 7.175781-16 16zm0 0" fill="url(#linear0)"/></svg>