<svg height="496pt" viewBox="0 0 496 496" width="496pt" xmlns="http://www.w3.org/2000/svg" xmlns:xlink="http://www.w3.org/1999/xlink"><linearGradient id="linear0" gradientUnits="userSpaceOnUse" x1="248" x2="248" y1="496" y2="0"><stop offset="0" stop-color="#9f2fff"/><stop offset="1" stop-color="#0bb1d3"/></linearGradient><path d="m289.3125 348.679688-3.769531-15.542969c4.785156-1.160157 9.519531-2.6875 14.082031-4.535157l6.03125 14.8125c-5.296875 2.144532-10.792969 3.921876-16.34375 5.265626zm-16.921875 2.824218-1.46875-15.9375c-4.890625.457032-9.898437.554688-14.824219.296875l-.851562 15.984375c2.050781.113282 4.105468.160156 6.167968.160156 3.691407-.007812 7.355469-.175781 10.976563-.503906zm-104.277344-156.816406-14.714843-6.289062c-2.421876 5.671874-4.414063 11.59375-5.910157 17.59375l15.519531 3.863281c1.296876-5.175781 3.007813-10.269531 5.105469-15.167969zm21.628907 111.570312c-19.183594-19.179687-29.742188-44.632812-29.742188-71.683593 0-3.382813.167969-6.796875.496094-10.140625l-15.921875-1.570313c-.382813 3.863281-.574219 7.808594-.574219 11.710938 0 31.320312 12.222656 60.800781 34.433594 82.992187zm178.257812-114.257812v16c44.113281 0 80-35.886719 80-80s-35.886719-80-80-80-80 35.886719-80 80h16c0-35.289062 28.710938-64 64-64s64 28.710938 64 64-28.710938 64-64 64zm0-192c-70.574219 0-128 57.425781-128 128h16c0-61.761719 50.238281-112 112-112s112 50.238281 112 112-50.238281 112-112 112v16c70.574219 0 128-57.425781 128-128s-57.425781-128-128-128zm-368 475.511719c0-3.777344 1.039062-7.472657 3.007812-10.6875l73.433594-120.167969c-2.824218-7.703125-4.441406-15.984375-4.441406-24.65625 0-27.992188 16.519531-53.199219 41.566406-64.953125-.917968-6.710937-1.566406-13.511719-1.566406-20.472656 0-39.910157 15.542969-77.429688 43.769531-105.652344l20.230469-20.234375 50.351562 50.351562 109.703126-30.472656c0-.191406-.054688-.375-.054688-.566406 0-17.648438 14.351562-32 32-32s32 14.351562 32 32-14.351562 32-32 32c-.191406 0-.375-.054688-.566406-.054688l-30.472656 109.695313 50.351562 50.359375-20.234375 20.230469c-28.222656 28.234375-65.742187 43.769531-105.652344 43.769531-16.203125 0-31.769531-2.671875-46.386719-7.464844l53.960938 88.289063c1.960938 3.222656 3 6.917969 3 10.6875 0 11.304687-9.191406 20.488281-20.488281 20.488281h-12.441407c-7.148437 0-13.878906-3.816406-17.566406-9.945312l-58.089844-96.816407c-1.140624.320313-2.253906.699219-3.414062.953125v85.320313c0 11.304687-9.191406 20.488281-20.488281 20.488281h-7.023438c-11.296875 0-20.488281-9.183594-20.488281-20.488281v-91.105469c-.136719-.070312-.265625-.125-.398438-.191406l-61.105468 101.839844c-3.6875 6.128906-10.417969 9.945312-17.566406 9.945312h-12.441407c-11.296875 0-20.488281-9.183594-20.488281-20.488281zm144-83.511719c-5.503906 0-10.839844-.679688-16-1.847656v85.367187c0 2.472657 2.007812 4.480469 4.488281 4.480469h7.023438c2.480469 0 4.488281-2.007812 4.488281-4.488281zm111.34375 81.167969-61.800781-101.128907c-4.582031 4.394532-9.664063 8.097657-15.136719 11.089844l56.816406 94.6875c.808594 1.351563 2.28125 2.183594 3.847656 2.183594h12.441407c2.480469 0 4.488281-2.007812 4.488281-4.488281 0-.824219-.222656-1.640625-.65625-2.34375zm96.695312-317.601563c-.0625-.03125-.128906-.0625-.191406-.101562l-64.535156 64.535156 36.648438 36.648438zm-.039062-27.566406c0 8.824219 7.175781 16 16 16s16-7.175781 16-16-7.175781-16-16-16-16 7.175781-16 16zm-112.648438 44.039062 36.648438 36.648438 64.535156-64.535156c-.039062-.0625-.0625-.128906-.101562-.191406zm-72.273437-31.808593c-1.261719 1.265625-2.375 2.640625-3.582031 3.953125l188.320312 188.328125c1.304688-1.207031 2.679688-2.320313 3.953125-3.582031l8.917969-8.929688-188.6875-188.6875zm-39.078125 94.34375c0 73.578125 59.847656 133.425781 133.425781 133.425781 28.414063 0 55.390625-8.953125 77.964844-25.296875l-186.085937-186.085937c-16.351563 22.566406-25.304688 49.550781-25.304688 77.957031zm-40 85.425781c0 30.871094 25.121094 56 56 56 14.320312 0 27.726562-5.457031 38.023438-15.070312-32-20.175782-55.757813-52.105469-65.296876-89.730469-17.46875 9.777343-28.726562 28.386719-28.726562 48.800781zm-72 155.511719c0 2.480469 2.007812 4.488281 4.488281 4.488281h12.441407c1.566406 0 3.039062-.832031 3.847656-2.175781l61.398437-102.328125c-4.992187-4.136719-9.382812-8.945313-13.113281-14.257813l-68.398438 111.929688c-.441406.703125-.664062 1.519531-.664062 2.34375zm0 0" fill="url(#linear0)"/></svg>