<svg height="502.24pt" viewBox="0 0 502.24 502.24" width="502.24pt" xmlns="http://www.w3.org/2000/svg" xmlns:xlink="http://www.w3.org/1999/xlink"><linearGradient id="linear0" gradientUnits="userSpaceOnUse" x1="251.12" x2="251.12" y1="502.2376" y2="-.0008"><stop offset="0" stop-color="#9f2fff"/><stop offset="1" stop-color="#0bb1d3"/></linearGradient><path d="m418.304688 215.632812 24.007812-72 36.3125-36.320312-9.015625-9.015625 29.703125-44.5625v-2.421875c0-26.472656-21.527344-48-48-48h-2.425781l-44.558594 29.703125-9.015625-9.015625-36.320312 36.320312-72 24-51.679688 51.679688-136-136-99.3125 99.3125 136 136-25.007812 25.007812-48 16-38.992188 38.992188 163.335938 163.335938 39.0625-38.921876 16.089843-48.285156 24.824219-24.816406 135.617188 135.613281 99.308593-99.308593-135.613281-135.617188zm-182.585938 159.960938-12.6875-12.691406 164.28125-164.277344 12.6875 12.6875zm136.777344-287.777344-55.03125 18.34375-11.34375-11.351562 55.023437-18.34375zm-42.367188 30.992188 55.023438-18.34375 17.015625 17.007812-18.34375 55.023438zm45.871094 68.503906-164.28125 164.28125-60.6875-60.691406 164.28125-164.277344zm31.808594 9.191406-11.34375-11.351562 18.335937-55.03125 11.351563 11.351562zm45.800781-177.113281c15.824219 1.128906 28.496094 13.800781 29.621094 29.617187l-25.167969 37.746094-42.199219-42.203125zm2.390625 87.921875-20.6875 20.6875-60.6875-60.6875 20.6875-20.6875zm-264.6875 72.6875-32.6875-32.6875 32.6875-32.6875 32.6875 32.6875zm-80.6875-80.6875 32.6875-32.6875 36.6875 36.6875-32.6875 32.6875zm25.375 48-32.6875 32.6875-36.6875-36.6875 32.6875-32.6875zm-4-92-32.6875 32.6875-32.6875-32.6875 32.6875-32.6875zm-76.6875 11.3125 32.6875 32.6875-32.6875 32.6875-32.6875-32.6875zm59.3125 124.6875 32.6875-32.6875 32.6875 32.6875-32.6875 32.6875zm176.6875-88.6875 12.6875 12.6875-164.28125 164.28125-12.6875-12.691406zm-244.6875 212.6875 20.6875-20.6875 140.765625 140.765625-20.726563 20.648437zm169.277344 105.289062-133.773438-133.792968 31.640625-10.542969 112.695313 112.695313zm95.410156-97.976562 32.6875 32.6875-32.6875 32.6875-32.6875-32.6875zm80.6875 80.6875-32.6875 32.6875-36.6875-36.6875 32.6875-32.6875zm-25.375-48 32.6875-32.6875 36.6875 36.6875-32.6875 32.6875zm4 92 32.6875-32.6875 32.304688 32.304688-32.6875 32.6875zm76.304688-11.695312-32.304688-32.304688 32.6875-32.6875 32.304688 32.304688zm-58.929688-124.304688-32.6875 32.6875-32.6875-32.6875 32.6875-32.6875zm-361.257812 51.429688 11.3125 11.3125c-24.949219 24.953124-24.949219 65.554687 0 90.511718 24.953124 24.953125 65.5625 24.953125 90.511718 0l11.3125 11.3125c-15.589844 15.601563-36.085937 23.394532-56.566406 23.394532-20.488281 0-40.976562-7.800782-56.570312-23.394532-31.191407-31.191406-31.191407-81.941406 0-113.136718zm33.945312 33.9375c-6.046875 6.046874-9.375 14.089843-9.375 22.632812s3.328125 16.582031 9.375 22.632812c12.097656 12.085938 33.152344 12.085938 45.25 0l11.308594 11.3125c-9.0625 9.0625-21.117188 14.054688-33.933594 14.054688-12.824219 0-24.871094-4.992188-33.9375-14.054688-9.070312-9.074218-14.0625-21.121093-14.0625-33.945312s4.992188-24.871094 14.0625-33.945312zm289.9375-209.367188-35.3125-35.3125-83.3125 83.3125 35.3125 35.3125zm-35.3125-12.6875 12.6875 12.6875-60.6875 60.6875-12.6875-12.6875zm-141.65625 114.34375 11.3125-11.3125 40 40-11.3125 11.3125zm64 16-40-40 11.3125-11.3125 40 40zm0 0" fill="url(#linear0)"/></svg>