<svg height="495pt" viewBox="0 0 495 495.728" width="495pt" xmlns="http://www.w3.org/2000/svg" xmlns:xlink="http://www.w3.org/1999/xlink"><linearGradient id="linear0" gradientUnits="userSpaceOnUse" x1="248.204" x2="248.204" y1="495.7312" y2="-.0032"><stop offset="0" stop-color="#9f2fff"/><stop offset="1" stop-color="#0bb1d3"/></linearGradient><path d="m68.203125 7.863281h-16c0 26.472657-21.527344 48-48 48v16c26.472656 0 48 21.527344 48 48h16c0-26.472656 21.527344-48 48-48v-16c-26.472656 0-48-21.527343-48-48zm-8 81.089844c-5.832031-10.539063-14.550781-19.257813-25.085937-25.089844 10.535156-5.832031 19.253906-14.550781 25.085937-25.085937 5.832031 10.535156 14.554687 19.253906 25.089844 25.085937-10.535157 5.832031-19.257813 14.550781-25.089844 25.089844zm192 102.910156h-16c0 26.472657-21.527344 48-48 48v16c26.472656 0 48 21.527344 48 48h16c0-26.472656 21.527344-48 48-48v-16c-26.472656 0-48-21.527343-48-48zm-8 81.089844c-5.832031-10.527344-14.550781-19.25-25.085937-25.089844 10.527343-5.832031 19.246093-14.550781 25.085937-25.085937 5.832031 10.527344 14.554687 19.246094 25.089844 25.085937-10.535157 5.832031-19.257813 14.550781-25.089844 25.089844zm201.023437-210.113281-44.238281 17.320312-20.785156-80.160156-20.792969 80.160156-44.238281-17.320312 17.441406 44.550781-68.25 20.472656 68.257813 20.480469-17.441406 44.550781 44.242187-17.320312 20.78125 80.152343 20.792969-80.152343 44.238281 17.320312-17.4375-44.550781 68.246094-20.480469-68.253907-20.480469zm-4.863281 65.023437-33.800781 10.144531 10.433594 26.65625-26.96875-10.558593-9.824219 37.894531-9.832031-37.894531-26.96875 10.558593 10.433594-26.65625-33.792969-10.144531 33.800781-10.144531-10.433594-26.65625 26.96875 10.5625 9.824219-37.898438 9.832031 37.898438 26.96875-10.5625-10.433594 26.65625zm-116.160156 185.472657-14.710937 54.175781-25.921876-8.28125 8.769532 27.433593-25.601563 13.199219 25.609375 13.191407-8.769531 27.433593 25.921875-8.28125 14.703125 54.183594 14.710937-54.175781 25.921876 8.28125-8.769532-27.433594 25.601563-13.199219-25.609375-13.191406 8.769531-27.433594-25.921875 8.28125zm22.535156 86.527343-10.03125 5.167969 3.441407 10.769531-12.289063-3.929687-3.65625 13.464844-3.65625-13.457032-12.285156 3.929688 3.4375-10.769532-10.03125-5.175781 10.03125-5.167969-3.4375-10.765624 12.285156 3.925781 3.65625-13.464844 3.65625 13.457031 12.289063-3.925781-3.441407 10.765625zm57.464844 56c17.648437 0 32 14.351563 32 32h16c0-17.648437 14.351563-32 32-32v-16c-17.648437 0-32-14.351562-32-32h-16c0 17.648438-14.351563 32-32 32zm40-21.519531c3.5625 5.359375 8.167969 9.96875 13.519531 13.519531-5.359375 3.5625-9.964844 8.167969-13.519531 13.519531-3.558594-5.359374-8.167969-9.96875-13.519531-13.519531 5.351562-3.558593 9.960937-8.167969 13.519531-13.519531zm-199.367187-371.113281-25.921876 8.28125-14.710937-54.175781-14.710937 54.175781-25.921876-8.28125 8.769532 27.433593-25.601563 13.199219 25.609375 13.191407-8.769531 27.433593 25.921875-8.28125 14.703125 54.183594 14.710937-54.175781 25.921876 8.28125-8.769532-27.433594 25.601563-13.199219-25.609375-13.191406zm-24.6875 56.578125-12.289063-3.929688-3.65625 13.457032-3.65625-13.457032-12.285156 3.929688 3.4375-10.769532-10.03125-5.175781 10.03125-5.167969-3.4375-10.765624 12.285156 3.925781 3.65625-13.464844 3.65625 13.457031 12.289063-3.925781-3.441407 10.765625 10.03125 5.175781-10.03125 5.167969zm-56.359376 227.574218 17.4375-44.550781-44.238281 17.3125-20.785156-80.144531-20.792969 80.152344-44.238281-17.3125 17.441406 44.550781-68.25 20.472656 68.257813 20.480469-17.449219 44.550781 44.25-17.320312 20.78125 80.152343 20.792969-80.152343 44.238281 17.3125-17.4375-44.550781 68.246094-20.472657zm-10.792968 57.273438-26.96875-10.558594-9.824219 37.902344-9.832031-37.894531-26.96875 10.550781 10.433594-26.648438-33.792969-10.144531 33.800781-10.144531-10.433594-26.648438 26.96875 10.5625 9.824219-37.90625 9.832031 37.898438 26.96875-10.5625-10.433594 26.648438 33.792969 10.152343-33.800781 10.144531zm275.207031-132.792969h-16v-16h16zm-48 48h-16v-16h16zm-312-120h-16v-16h16zm48-48h16v16h-16zm-32 128h-16v-16h16zm160 168h-16v-16h16zm56-400v-16h16v16zm0 0" fill="url(#linear0)"/></svg>