<svg height="496pt" viewBox="-4 0 496 496" width="496pt" xmlns="http://www.w3.org/2000/svg" xmlns:xlink="http://www.w3.org/1999/xlink"><linearGradient id="linear0" gradientUnits="userSpaceOnUse" x1="244" x2="244" y1="496" y2="0"><stop offset="0" stop-color="#9f2fff"/><stop offset="1" stop-color="#0bb1d3"/></linearGradient><path d="m80 0c-44.113281 0-80 35.886719-80 80s35.886719 80 80 80 80-35.886719 80-80-35.886719-80-80-80zm0 144c-35.289062 0-64-28.710938-64-64s28.710938-64 64-64 64 28.710938 64 64-28.710938 64-64 64zm376 256c0-17.648438 14.351562-32 32-32v-16c-17.648438 0-32-14.351562-32-32h-16c0 17.648438-14.351562 32-32 32v16c17.648438 0 32 14.351562 32 32zm-21.519531-40c5.359375-3.558594 9.960937-8.167969 13.519531-13.519531 3.558594 5.359375 8.160156 9.960937 13.519531 13.519531-5.359375 3.558594-9.960937 8.167969-13.519531 13.519531-3.558594-5.351562-8.167969-9.960937-13.519531-13.519531zm-170.480469 112c0 13.230469 10.769531 24 24 24s24-10.769531 24-24-10.769531-24-24-24-24 10.769531-24 24zm32 0c0 4.414062-3.585938 8-8 8s-8-3.585938-8-8 3.585938-8 8-8 8 3.585938 8 8zm-192.289062-79.710938c5.242187 5.238282 12.425781 7.621094 21.066406 7.621094 23.695312 0 58.351562-17.957031 93.992187-43.910156 9.335938 2.527344 19.101563 4 29.230469 4 61.761719 0 112-50.238281 112-112 0-10.039062-1.457031-19.71875-3.9375-28.984375 36.464844-49.777344 55.808594-95.726563 36.226562-115.304687-24.640624-24.613282-86.960937 15.714843-115.183593 36.257812-9.296875-2.503906-19.027344-3.96875-29.105469-3.96875-61.761719 0-112 50.238281-112 112 0 10.089844 1.464844 19.816406 3.96875 29.113281-20.527344 28.214844-60.871094 90.550781-36.257812 115.175781zm11.3125-11.3125c-8.429688-8.433593.152343-40.097656 31.625-85.617187 11.121093 23.679687 30.230468 42.824219 53.910156 53.953125-45.4375 31.359375-77.199219 39.992188-85.535156 31.664062zm228.976562-132.976562c0 52.9375-43.0625 96-96 96-4.183594 0-8.273438-.359375-12.3125-.878906 9.761719-7.722656 19.464844-15.914063 28.9375-24.402344 2.335938.769531 4.789062 1.28125 7.375 1.28125 13.230469 0 24-10.769531 24-24 0-2.152344-.375-4.191406-.902344-6.167969 17.253906-17.441406 33.613282-35.753906 48.0625-53.910156.496094 3.957031.839844 7.972656.839844 12.078125zm-80 48c0-4.414062 3.585938-8 8-8s8 3.585938 8 8-3.585938 8-8 8-8-3.585938-8-8zm116.976562-180.976562c8.953126 8.960937-1.097656 41.441406-31.632812 85.617187-11.128906-23.710937-30.28125-42.863281-53.992188-53.992187 45.527344-31.496094 77.167969-40.054688 85.625-31.625zm-132.976562 36.976562c41.648438 0 77.078125 26.703125 90.34375 63.839844-14.136719 18.761718-31.609375 39.167968-52.574219 60.550781-3.914062-2.742187-8.640625-4.390625-13.769531-4.390625-13.230469 0-24 10.769531-24 24 0 4.6875 1.40625 9.039062 3.742188 12.742188-12.582032 11.179687-24.621094 21.066406-35.933594 29.585937-37.128906-13.273437-63.808594-48.695313-63.808594-90.328125 0-52.9375 43.0625-96 96-96zm-24-112c0-13.230469-10.769531-24-24-24s-24 10.769531-24 24 10.769531 24 24 24 24-10.769531 24-24zm-32 0c0-4.40625 3.585938-8 8-8s8 3.59375 8 8-3.585938 8-8 8-8-3.59375-8-8zm-128 40c-13.230469 0-24-10.769531-24-24s10.769531-24 24-24 24 10.769531 24 24h-16c0-4.40625-3.585938-8-8-8s-8 3.59375-8 8 3.585938 8 8 8zm289.375-6.039062-2.75-15.769532c31.917969-5.550781 57.839844-.4375 72.734375 14.457032 15.082031 15.0625 20.082031 40.207031 14.472656 72.710937l-15.769531-2.71875c4.617188-26.769531 1.066406-47.609375-10.015625-58.671875-11.015625-11.03125-32.214844-14.625-58.671875-10.007812zm65.3125 83.984374 15.472656 4.117188c-1.046875 3.921875-2.222656 7.914062-3.542968 11.992188-.496094 1.519531-1 3.042968-1.519532 4.5625l-15.128906-5.21875c.488281-1.421876.96875-2.847657 1.429688-4.269532 1.21875-3.800781 2.320312-7.535156 3.289062-11.183594zm-10.640625 30.964844 14.769531 6.167969c-2.28125 5.449219-4.746094 10.921875-7.417968 16.410156l-14.390626-6.992187c2.527344-5.207032 4.878907-10.40625 7.039063-15.585938zm-325.957031 30.144532c-1.28125-3.453126-2.089844-7.152344-2.089844-11.054688h-16c0 17.648438-14.351562 32-32 32v16c8.785156 0 16.742188 3.558594 22.527344 9.3125-32.75 64.589844-39.375 122.71875-18.503906 161.429688-2.535157 3.800781-4.023438 8.363281-4.023438 13.257812 0 13.230469 10.769531 24 24 24 4.847656 0 9.359375-1.472656 13.136719-3.953125 14.742187 7.921875 32.277343 11.753906 51.75 11.753906 66.496093 0 155.371093-44.3125 230.984375-119.929687 111.007812-111.03125 152.351562-243.613282 94.113281-301.855469-27.953125-27.960937-74.167969-33.511719-130.578125-16.015625-4.359375-6.03125-11.414062-10-19.40625-10-13.230469 0-24 10.769531-24 24 0 1.078125.175781 2.121094.320312 3.160156-44.191406 21.230469-88.390624 53.175782-128.183593 92.976563-23.664063 23.65625-44.359375 48.847656-62.046875 74.917969zm-10.089844 15.425781c3.558594 5.359375 8.160156 9.96875 13.519531 13.519531-5.359375 3.558594-9.960937 8.167969-13.519531 13.519531-3.558594-5.359375-8.167969-9.96875-13.519531-13.519531 5.351562-3.558594 9.960937-8.167969 13.519531-13.519531zm-16 213.519531c-4.414062 0-8-3.585938-8-8s3.585938-8 8-8 8 3.585938 8 8-3.585938 8-8 8zm240-408c4.414062 0 8 3.59375 8 8s-3.585938 8-8 8-8-3.59375-8-8 3.585938-8 8-8zm-16.414062 25.414062c4.292968 4.058594 10.054687 6.585938 16.414062 6.585938 12.777344 0 23.144531-10.046875 23.855469-22.648438 50.570312-15.777343 91.207031-11.632812 114.816406 11.96875 51.03125 51.03125 8.808594 176.296876-94.121094 279.230469-90.34375 90.34375-203.015625 135.617188-261.734375 106.496094.695313-2.238281 1.183594-4.574219 1.183594-7.046875 0-13.230469-10.769531-24-24-24-2.457031 0-4.777344.480469-7 1.167969-15.664062-31.617188-10.304688-80.191407 14.527344-133.777344.234375 1.511719.472656 3.035156.472656 4.609375h16c0-17.648438 14.351562-32 32-32v-16c-7.574219 0-14.457031-2.753906-19.9375-7.167969 17.785156-26.953125 38.984375-52.984375 63.386719-77.382812 38.640625-38.640625 81.4375-69.585938 124.136719-90.035157zm128.414062 350.585938c-17.648438 0-32 14.351562-32 32s14.351562 32 32 32 32-14.351562 32-32-14.351562-32-32-32zm0 48c-8.824219 0-16-7.175781-16-16s7.175781-16 16-16c8.816406 0 16 7.175781 16 16s-7.183594 16-16 16zm-320-352h16c0 13.230469-10.769531 24-24 24s-24-10.769531-24-24h16c0 4.40625 3.585938 8 8 8s8-3.59375 8-8zm40-32c0 13.230469-10.769531 24-24 24v-16c4.414062 0 8-3.59375 8-8s-3.585938-8-8-8v-16c13.230469 0 24 10.769531 24 24zm56 168h-16c0-44.113281 35.886719-80 80-80v16c-35.289062 0-64 28.710938-64 64zm280 0c-13.230469 0-24 10.769531-24 24s10.769531 24 24 24 24-10.769531 24-24-10.769531-24-24-24zm0 32c-4.414062 0-8-3.585938-8-8s3.585938-8 8-8 8 3.585938 8 8-3.585938 8-8 8zm0 0" fill="url(#linear0)"/></svg>