<svg height="497.576pt" viewBox="0 0 497.576 497.576" width="497.576pt" xmlns="http://www.w3.org/2000/svg" xmlns:xlink="http://www.w3.org/1999/xlink"><linearGradient id="linear0" gradientUnits="userSpaceOnUse" x1="248.7864" x2="248.7864" y1="497.5784" y2="0"><stop offset="0" stop-color="#9f2fff"/><stop offset="1" stop-color="#0bb1d3"/></linearGradient><path d="m409.574219 0c-28.6875 0-55.238281 14-71.636719 37.046875l-8.363281-8.359375-36.542969 36.542969-249.4375 104.601562-43.59375 95.902344 231.839844 231.839844 95.894531-43.589844 104.601563-249.441406 36.550781-36.542969-8.359375-8.359375c23.046875-16.402344 37.046875-42.953125 37.046875-71.640625 0-48.519531-39.476563-88-88-88zm6.546875 201.855469-12.226563 29.152343-137.328125-137.328124 29.152344-12.222657zm-232.449219-73.40625-39.335937 59-29.953126-29.953125zm-164.519531 133.816406 32.925781-72.449219 255.675781 255.671875-72.449218 32.925781zm299.65625 171.65625-255.152344-255.152344 34.792969-14.585937 48.375 48.375 63.535156-95.300782 40.265625-16.890624 146.589844 146.59375-16.886719 40.261718-95.304687 63.539063 48.375 48.375zm50.320312-120.019531-29.050781 69.289062-29.949219-29.953125zm56.445313-125.214844-116.6875-116.6875 20.6875-20.6875 116.691406 116.6875zm23.394531-40.609375-99.472656-99.46875c13.257812-20.183594 35.695312-32.609375 60.078125-32.609375 39.707031 0 72 32.296875 72 72 0 24.382812-12.421875 46.824219-32.605469 60.078125zm-182.375 9.625-109.570312 73.058594 109.800781 109.796875 73.054687-109.566406zm-2.257812 157.746094-82.207032-82.210938 82.429688-54.941406 54.722656 54.71875zm-6.761719-107.449219c-17.644531 0-32 14.351562-32 32s14.355469 32 32 32c17.648437 0 32-14.351562 32-32s-14.351563-32-32-32zm0 48c-8.820313 0-16-7.175781-16-16s7.179687-16 16-16c8.816406 0 16 7.175781 16 16s-7.183594 16-16 16zm-56 100.6875-35.308594 35.3125 67.308594 67.3125 35.3125-35.3125zm-12.6875 35.3125 12.6875-12.6875 44.691406 44.6875-12.691406 12.6875zm-109.65625-141.65625 80 80-11.308594 11.3125-80-80zm-8-8-11.308594 11.3125-16-16 11.308594-11.3125zm338.34375-170.34375h16v16h-16zm-32-32h16v16h-16zm64 64h16v16h-16zm0 0" fill="url(#linear0)"/></svg>