<svg height="496pt" viewBox="0 0 496 496" width="496pt" xmlns="http://www.w3.org/2000/svg" xmlns:xlink="http://www.w3.org/1999/xlink"><linearGradient id="linear0" gradientUnits="userSpaceOnUse" x1="248" x2="248" y1="496" y2="0"><stop offset="0" stop-color="#9f2fff"/><stop offset="1" stop-color="#0bb1d3"/></linearGradient><path d="m54.625 348.6875 33.375-33.375 6.265625 6.261719-32 64 48.148437 48.160156 64-32 6.273438 6.265625-33.375 33.375c-12.457031 12.457031-19.3125 29.007812-19.3125 46.625v8h8c17.617188 0 34.167969-6.855469 46.625-19.3125l33.375-33.375 32 32 5.65625-5.65625c14.792969-14.792969 20.6875-36.070312 16.085938-56.089844l164.136718-164.132812c24.28125-24.28125 42.847656-54.328125 53.714844-86.90625l5.054688-15.183594-15.175782 5.054688c-16.367187 5.457031-32.105468 12.875-46.785156 21.976562 29.746094-45.285156 51.832031-95.4375 65.082031-148.4375l.230469-1.9375c0-13.230469-10.769531-24-24-24l-1.945312.238281c-53 13.25-103.152344 35.335938-148.4375 65.082031 9.101562-14.679687 16.519531-30.417968 21.976562-46.785156l5.054688-15.175781-15.175782 5.054687c-32.578125 10.859376-62.625 29.433594-86.90625 53.714844l-164.167968 164.160156c-4.40625-1.015624-8.894532-1.59375-13.453126-1.59375-16.097656 0-31.226562 6.265626-42.601562 17.648438l-5.65625 5.65625 32 32-33.375 33.375c-12.457031 12.457031-19.3125 29.007812-19.3125 46.625v8h8c17.617188 0 34.167969-6.855469 46.625-19.3125zm58.949219 65.578125-31.847657-31.839844 24.457032-48.921875 56.304687 56.304688zm57.738281 51.109375c-7.335938 7.335938-16.542969 12.105469-26.550781 13.863281 1.757812-10 6.527343-19.214843 13.863281-26.550781l33.375-33.375 12.6875 12.6875zm26.496094-110.878906-56.304688-56.304688 16.921875-8.457031 47.839844 47.839844zm-36.234375-84.230469-32 16-41.535157-41.539063c13.664063 4.847657 27.90625 7.402344 42.417969 7.402344 34 0 65.957031-13.234375 89.992188-37.273437l7.167969-7.175781c20.648437-20.640626 48.015624-33.617188 77.070312-36.519532l22.375-2.238281-2.238281 22.375c-2.902344 29.054687-15.871094 56.421875-36.519531 77.070313l-7.167969 7.167968c-34.695313 34.695313-46.199219 86.296875-29.914063 132.359375l-41.496094-41.496093 16-32zm215.402343-218.417969c5.160157 34.464844 32.351563 61.746094 67.214844 67.074219-5.648437 11.222656-11.703125 22.238281-18.238281 32.972656-.648437.035157-1.289063.105469-1.953125.105469-44.113281 0-80-35.886719-80-80 0-.664062.070312-1.304688.105469-1.960938 10.703125-6.511718 21.679687-12.550781 32.871093-18.191406zm39.007813 115.746094c-17.136719 25.804688-36.847656 49.957031-58.9375 72.046875l-91.710937 91.710937c5.3125-16.457031 14.40625-31.785156 27.113281-44.488281l7.167969-7.167969c23.246093-23.246093 37.855468-54.070312 41.125-86.792968l4.1875-41.832032-41.832032 4.1875c-32.722656 3.269532-63.539062 17.878907-86.792968 41.125l-7.175782 7.167969c-12.703125 12.707031-27.960937 21.890625-44.59375 27.21875l91.808594-91.816406c22.089844-22.089844 46.242188-41.800781 72.046875-58.9375 3.890625 46.535156 41.058594 83.703125 87.59375 87.578125zm-155.886719 191.621094 123.902344-123.902344 20.6875 20.6875-140.398438 140.398438c-3.535156-12.222657-4.90625-24.789063-4.191406-37.183594zm-123.234375-123.390625c-2.136719.121093-4.253906.3125-6.40625.3125-10.496093 0-20.839843-1.503907-30.871093-4.410157l140.414062-140.414062 20.6875 20.6875zm279.136719 8.863281-20.6875-20.6875 6.566406-6.566406c2.042969-2.042969 4.289063-3.875 6.417969-5.824219l20.101563 20.101563c-1.957032 2.128906-3.78125 4.367187-5.832032 6.417968zm22.816406-25.183594-18.3125-18.3125c14-10.976562 29.328125-20.296875 45.65625-27.34375-7.054687 16.328125-16.367187 31.648438-27.34375 45.65625zm34.007813-203.464844c3.75.386719 6.75 3.375 7.136719 7.136719-7.015626 27.792969-16.609376 54.746094-28.472657 80.601563-31.777343-2.234375-57.167969-27.707032-59.28125-59.25 25.855469-11.871094 52.816407-21.464844 80.617188-28.488282zm-178.007813 59.464844-18.3125-18.3125c14-10.976562 29.328125-20.296875 45.65625-27.34375-7.054687 16.328125-16.367187 31.648438-27.34375 45.65625zm-30.519531-7.894531 20.101563 20.101563c-1.957032 2.128906-3.78125 4.367187-5.832032 6.417968l-6.566406 6.558594-20.6875-20.6875 6.566406-6.566406c2.042969-2.042969 4.289063-3.875 6.417969-5.824219zm-202.257813 173.742187 192.640626 192.640626c-1.03125 6.464843-3.414063 12.695312-7.191407 18.175781l-203.664062-203.664063c5.414062-3.75 11.695312-6.128906 18.214843-7.152344zm-31.414062 83.335938 33.375-33.375 12.6875 12.6875-33.375 33.375c-7.335938 7.335938-16.542969 12.105469-26.550781 13.863281 1.757812-10.007812 6.535156-19.222656 13.863281-26.550781zm220-44 46.0625-46.0625c4.710938-4.714844 7.3125-10.984375 7.3125-17.65625 0-13.769531-11.199219-24.96875-24.96875-24.96875-6.671875 0-12.941406 2.601562-17.65625 7.3125l-46.0625 46.0625c-4.710938 4.714844-7.3125 10.984375-7.3125 17.65625 0 13.769531 11.199219 24.96875 24.96875 24.96875 6.671875 0 12.941406-2.601562 17.65625-7.3125zm-26.625-17.65625c0-2.398438.9375-4.648438 2.625-6.34375l46.0625-46.0625c1.695312-1.6875 3.945312-2.625 6.34375-2.625 4.945312 0 8.96875 4.023438 8.96875 8.96875 0 2.398438-.9375 4.648438-2.625 6.34375l-46.0625 46.0625c-1.695312 1.6875-3.945312 2.625-6.34375 2.625-4.945312 0-8.96875-4.023438-8.96875-8.96875zm216-183.03125c13.230469 0 24-10.769531 24-24s-10.769531-24-24-24-24 10.769531-24 24 10.769531 24 24 24zm0-32c4.40625 0 8 3.59375 8 8s-3.59375 8-8 8-8-3.59375-8-8 3.59375-8 8-8zm0 0" fill="url(#linear0)"/></svg>