<svg height="502pt" viewBox="0 0 502 502.736" width="502pt" xmlns="http://www.w3.org/2000/svg" xmlns:xlink="http://www.w3.org/1999/xlink"><linearGradient id="linear0" gradientUnits="userSpaceOnUse" x1="251.68" x2="251.68" y1="502.7368" y2=".0024"><stop offset="0" stop-color="#9f2fff"/><stop offset="1" stop-color="#0bb1d3"/></linearGradient><path d="m467.679688 78.734375 35.3125-35.308594-43.3125-43.3125-35.3125 35.3125h-64l-28.6875 28.6875-64.113282-64.113281-75.308594 75.3125 64.109376 64.113281-31.886719 31.886719 8 8-24.113281 24.113281 8 8-33.007813 33.007813-41.519531 13.839844-66.0625-66.066407-75.3125 75.3125 63.902344 63.90625-19.566407 19.558594-9.839843 47.03125 5.40625 5.410156-40 40 59.3125 59.308594 40-40 5.398437 5.410156 47.035156-9.839843 19.566407-19.570313 64 64 75.3125-75.308594-66.160157-66.160156 13.839844-41.523437 33.007813-33.007813 8 8 24.113281-24.109375 8 8 31.886719-31.890625 63.65625 63.65625 75.3125-75.3125-63.65625-63.652344 28.6875-28.691406zm12.6875-35.308594-20.6875 20.6875-20.6875-20.6875 20.6875-20.691406zm-124.6875 188.6875-84.6875-84.6875 92.6875-92.691406 84.6875 84.691406zm27.3125-180.6875h41.375l27.3125 27.308594v41.378906zm-83.3125 44.6875-20.6875-20.6875 20.6875-20.691406 20.6875 20.691406zm-11.3125-52.6875-20.6875 20.6875-20.800782-20.800781 20.6875-20.6875zm-52.800782 11.199219 20.800782 20.800781-20.6875 20.6875-20.800782-20.800781zm11.425782 52.800781 20.6875-20.691406 20.6875 20.691406-20.6875 20.6875zm-22.625 256-52.6875 52.6875-84.6875-84.6875 52.6875-52.691406zm-148.589844-148.59375 20.589844 20.59375-52.6875 52.6875-20.589844-20.59375zm-20.785156 84.59375 52.6875-52.691406 20.6875 20.691406-52.6875 52.6875zm26.34375 122.34375-28.945313-28.9375 4.554687-21.761719 75.085938 75.082032-21.75 4.550781zm-21.65625 58.34375-36.6875-36.6875 28.6875-28.691406 18.34375 18.34375 18.34375 18.347656zm88.464843-40.472656-84.6875-84.6875 12.222657-12.21875 84.679687 84.691406zm87.535157-64.90625 20.6875 20.691406-52.6875 52.6875-20.6875-20.6875zm0 105.378906-20.6875-20.6875 52.6875-52.691406 20.6875 20.691406zm-81.191407-209.183593 31.03125-10.34375 57.007813 57.007812-10.34375 31.03125zm97.191407 33.183593-52.6875-52.6875 28.6875-28.691406 52.6875 52.691406zm48-32-68.6875-68.6875 12.800781-12.800781 68.6875 68.6875zm-52.574219-100.800781 12.574219-12.578125 84.6875 84.691406-12.574219 12.574219zm148.574219 43.421875 20.6875 20.691406-20.6875 20.6875-20.6875-20.6875zm11.3125 52.691406 20.6875-20.691406 20.34375 20.34375-20.6875 20.691406zm52.34375-11.65625-20.34375-20.34375 20.6875-20.691406 20.34375 20.34375zm-10.96875-52.34375-20.6875 20.6875-20.6875-20.6875 20.6875-20.691406zm-330.34375 117.652344 11.3125-11.308594 64 64-11.3125 11.308594zm245.65625-221.652344c-22.054688 0-40 17.941407-40 40 0 22.054688 17.945312 40 40 40 22.054687 0 40-17.945312 40-40 0-22.058593-17.945313-40-40-40zm0 64c-13.230469 0-24-10.769531-24-24 0-13.234375 10.769531-24 24-24 13.230468 0 24 10.765625 24 24 0 13.230469-10.769532 24-24 24zm0 0" fill="url(#linear0)"/></svg>