<svg height="499pt" viewBox="-32 0 499 499.312" width="499pt" xmlns="http://www.w3.org/2000/svg" xmlns:xlink="http://www.w3.org/1999/xlink"><linearGradient id="linear0" gradientUnits="userSpaceOnUse" x1="217.812" x2="217.812" y1="499.312" y2="-.0008"><stop offset="0" stop-color="#9f2fff"/><stop offset="1" stop-color="#0bb1d3"/></linearGradient><path d="m184.15625 315.3125c0 13.230469 10.769531 24 24 24s24-10.769531 24-24c0-13.234375-10.769531-24-24-24s-24 10.765625-24 24zm24-8c4.414062 0 8 3.589844 8 8 0 4.40625-3.585938 8-8 8-4.417969 0-8-3.59375-8-8 0-4.410156 3.582031-8 8-8zm-97.304688-29.097656 12.34375 10.183594-12.863281 15.578124-12.34375-10.183593zm71.816407-61.808594-52.871094 64-12.328125-10.183594 52.871094-64zm173.808593 1.898438 78.992188-78.992188-139.3125-139.3125-78.992188 78.992188-16.128906 48.375-109.253906 132.257812-12.511719-12.519531 52.796875-43.203125-52.496094-52.496094-79.414062 97.050781v2.855469c0 17.648438 14.351562 32 32 32h2.855469l5.410156-4.425781 19.414063 19.417969-14.480469 17.519531 8.351562 8.351562-40 56 41.578125 41.585938 56-40 8.351563 8.351562 20.457031-16.898437-42.160156 96.335937c-1.175782 2.707031-1.777344 5.578125-1.777344 8.527344 0 11.714844 9.519531 21.234375 21.230469 21.234375h10.167969c8.386718 0 16-4.953125 19.410156-12.609375l37.191406-83.6875v75.0625c0 11.714844 9.519531 21.234375 21.230469 21.234375h5.527343c11.722657 0 21.242188-9.519531 21.242188-21.234375v-75.0625l37.191406 83.6875c3.410156 7.65625 11.023438 12.609375 19.410156 12.609375h10.167969c11.710938 0 21.230469-9.519531 21.230469-21.234375 0-2.957031-.601562-5.820313-1.785156-8.511719l-54.214844-123.925781v-70.328125h-5.542969l49.496094-40.878906zm-19.136718-10.488282-31.03125 10.34375-89-89.007812 10.34375-31.03125zm75.503906-68.503906-60.6875 60.6875-116.6875-116.6875 60.6875-60.6875zm-204.128906 3.871094 83.570312 83.570312-27.042968 22.335938-78.855469-78.859375zm-127.96875 32.03125 27.507812 27.503906-13.953125 11.417969-24.96875-24.960938zm-51.191406 91.890625c-6.742188-1.105469-12.078126-6.449219-13.183594-13.195313l42.785156-52.292968 22.703125 22.695312zm23.304687 1.605469 13.960937-11.421876 14.726563 14.726563-11.472656 13.894531zm4.160156 132.152343-22.421875-22.414062 30.574219-42.808594 34.640625 34.648437zm75.3125 79.335938c-.832031 1.898437-2.703125 3.113281-4.777343 3.113281h-10.167969c-2.878907 0-5.230469-2.34375-5.230469-5.234375 0-.726563.152344-1.429687.441406-2.09375l52.789063-120.671875h18.769531v8.296875zm35.824219-140.886719v-48h80v48zm48 138.765625c0 2.890625-2.351562 5.234375-5.230469 5.234375h-5.53125c-2.886719 0-5.238281-2.34375-5.238281-5.234375v-122.765625h16zm88 0c0 2.890625-2.351562 5.234375-5.230469 5.234375h-10.167969c-2.074218 0-3.945312-1.214844-4.785156-3.113281l-51.816406-116.589844v-8.296875h18.769531l52.796875 120.679688c.28125.65625.433594 1.359374.433594 2.085937zm-152-202.765625v67.183594l-31.488281 26.007812-53.71875-53.710937 109.191406-132.183594 76.703125 76.703125-19.351562 16zm140.28125-208.976562-11.3125-11.3125 11.3125-11.3125 11.308594 11.3125zm-33.9375 11.320312 11.3125-11.3125 11.3125 11.3125-11.3125 11.3125zm0 0" fill="url(#linear0)"/></svg>