<svg height="493.656pt" viewBox="0 0 493.656 493.656" width="493.656pt" xmlns="http://www.w3.org/2000/svg" xmlns:xlink="http://www.w3.org/1999/xlink"><linearGradient id="linear0" gradientUnits="userSpaceOnUse" x1="246.828" x2="246.828" y1="493.656" y2="0"><stop offset="0" stop-color="#9f2fff"/><stop offset="1" stop-color="#0bb1d3"/></linearGradient><path d="m240.558594 314.34375-11.3125 11.3125-16-16 11.3125-11.3125zm-2.949219 19.496094c36.957031 34.574218 85.117187 55.128906 135.613281 57.839844l.855469-15.984376c-47.421875-2.542968-90.832031-21.0625-125.542969-53.542968zm256.046875-229.839844c0 25.089844-8.894531 48.769531-25.082031 67.609375l11.160156 11.152344-45.628906 76.054687c12.636719 29.953125 19.335937 62.40625 19.414062 95.878906l.105469 45.28125c.015625 6.40625-2.472656 12.4375-7 16.976563-4.535156 4.550781-10.5625 7.046875-16.96875 7.046875h-44.59375c-33.183594 0-65.375-6.488281-95.132812-18.832031l-61.515626 36.902343-40.828124-40.832031 27.085937-45.148437c-1.65625-1.578125-3.34375-3.113282-4.96875-4.738282l-.296875-.289062-53.335938 26.664062-40.148437-40.160156 26.664063-53.328125-.296876-.292969c-1.625-1.625-3.160156-3.3125-4.730468-4.96875l-45.144532 27.085938-40.828124-40.832031 36.910156-61.519531c-12.359375-29.734376-18.839844-61.925782-18.839844-95.117188v-44.59375c0-13.246094 10.75-24 23.96875-24h44.621094c33.769531 0 66.488281 6.734375 96.675781 19.511719l75.972656-45.589844 11.160157 11.15625c18.832031-16.183594 42.511718-25.078125 67.601562-25.078125 57.34375 0 104 46.65625 104 104zm-241.328125-36.273438c13.625 7.074219 26.609375 15.464844 38.832031 25.074219l52.609375-23.375-35.34375-35.347656zm137.078125 121.136719 22.714844-51.085937-56.234375-56.234375-51.085938 22.703125c2.992188 2.722656 5.925781 5.515625 8.808594 8.394531l67.269531 67.269531c2.929688 2.921875 5.769532 5.914063 8.527344 8.953125zm-66.445312 93.128907 41.207031-96.167969-56.34375-56.34375-96.160157 41.214843zm-184.714844-225.992188h-41.277344l102.511719 102.519531 95.933593-41.121093c-42.949218-39.636719-98.375-61.398438-157.167968-61.398438zm-11.535156 210.832031c-11.78125-14.167969-21.816407-29.464843-30.0625-45.609375l-24.921876 41.53125 23.167969 23.167969zm70.777343 72.3125-42.976562-42.96875-19.128907 38.25 23.839844 23.839844zm74.945313 57.863281c-16.144532-8.253906-31.441406-18.289062-45.609375-30.070312l-19.097657 31.824219 23.167969 23.167969zm112.628906 10.992188h41.28125l-340.6875-340.6875v41.28125c0 61.964844 24.136719 120.222656 67.953125 164.046875l67.414063 67.40625c43.816406 43.816406 102.082031 67.953125 164.039062 67.953125zm52.449219-53.265625c-.136719-58.519531-21.839844-113.703125-61.265625-156.496094l-41.109375 95.929688 102.480469 102.472656zm22.074219-169.496094-35.347657-35.351562-23.390625 52.632812c9.609375 12.234375 17.984375 25.234375 25.046875 38.871094zm18.070312-81.238281c0-48.519531-39.480469-88-88-88-20.816406 0-40.511719 7.207031-56.296875 20.390625l123.898437 123.898437c13.191407-15.785156 20.398438-35.472656 20.398438-56.289062zm-466.34375 389.65625 16-16-11.3125-11.3125-16 16zm12.6875-35.3125 11.3125 11.3125 96-96-11.3125-11.3125zm56-16-16 16 11.3125 11.3125 16-16zm8-8 11.3125 11.3125 40-40-11.3125-11.3125zm-48-32-16 16 11.3125 11.3125 16-16zm8-8 11.3125 11.3125 40-40-11.3125-11.3125zm-36.6875-36.6875 16-16-11.3125-11.3125-16 16zm12.6875-35.3125 11.3125 11.3125 32-32-11.3125-11.3125zm16 24 11.3125 11.3125 32-32-11.3125-11.3125zm-40-40 11.3125 11.3125 32-32-11.3125-11.3125zm152 160-16 16 11.3125 11.3125 16-16zm8-8 11.3125 11.3125 32-32-11.3125-11.3125zm16 24 11.3125 11.3125 32-32-11.3125-11.3125zm-40-40 11.3125 11.3125 32-32-11.3125-11.3125zm45.65625-330.34375c0-13.230469 10.769531-24 24-24s24 10.769531 24 24-10.769531 24-24 24-24-10.769531-24-24zm16 0c0 4.40625 3.589844 8 8 8 4.40625 0 8-3.59375 8-8s-3.59375-8-8-8c-4.410156 0-8 3.59375-8 8zm184 152c13.230469 0 24 10.769531 24 24s-10.769531 24-24 24-24-10.769531-24-24 10.769531-24 24-24zm0 16c-4.410156 0-8 3.585938-8 8s3.589844 8 8 8c4.40625 0 8-3.585938 8-8s-3.59375-8-8-8zm-56-88c0 13.230469-10.769531 24-24 24s-24-10.769531-24-24 10.769531-24 24-24 24 10.769531 24 24zm-16 0c0-4.40625-3.59375-8-8-8-4.410156 0-8 3.59375-8 8s3.589844 8 8 8c4.40625 0 8-3.59375 8-8zm52.992188-154.761719 6.007812 14.824219c4.472656-1.816406 9.175781-3.03125 13.984375-3.628906l-1.976563-15.875c-6.183593.769531-12.25 2.34375-18.015624 4.679687zm27.007812-5.238281v16c17.078125 0 33.015625 7.65625 43.71875 21l12.488281-10.007812c-13.757812-17.152344-34.246093-26.992188-56.207031-26.992188zm0 0" fill="url(#linear0)"/></svg>