<svg height="496pt" viewBox="0 0 496 496" width="496pt" xmlns="http://www.w3.org/2000/svg" xmlns:xlink="http://www.w3.org/1999/xlink"><linearGradient id="linear0" gradientUnits="userSpaceOnUse" x1="248" x2="248" y1="496" y2="0"><stop offset="0" stop-color="#9f2fff"/><stop offset="1" stop-color="#0bb1d3"/></linearGradient><path d="m440 368.550781v-24.550781c0-13.230469-10.769531-24-24-24h-8v-64h12.945312l16-32h19.054688c13.230469 0 24-10.769531 24-24v-80c0-13.230469-10.769531-24-24-24h-19.054688l-16-32h-73.890624l-16 32h-19.054688c-13.230469 0-24 10.769531-24 24v80c0 13.230469 10.769531 24 24 24h19.054688l16 32h12.945312v64h-70.113281l-70.511719-35.257812c-6.207031-3.101563-13.152344-4.742188-20.085938-4.742188-10.59375 0-20.503906 3.832031-28.554687 10.511719l-.277344-.28125-2.921875 2.921875-18.589844-37.152344h-28.945312v-56.199219c6.023438-4.5625 10.6875-10.722656 13.375-17.914062l99.273438-16.542969-40.167969-40.167969 8.945312-62.601562-62.601562 8.945312-40.160157-40.167969-16.542968 99.273438c-15.210938 5.671875-26.121094 20.214844-26.121094 37.375 0 13.015625 6.34375 24.480469 16 31.800781v56.199219h-16v64h-8c-13.230469 0-24 10.769531-24 24v38.121094c-14.609375 11.734375-24 29.71875-24 49.878906 0 35.289062 28.710938 64 64 64s64-28.710938 64-64c0-5.527344-.785156-10.871094-2.113281-16h36.21875c-1.320313 5.128906-2.105469 10.472656-2.105469 16 0 35.289062 28.710938 64 64 64s64-28.710938 64-64c0-5.527344-.785156-10.871094-2.113281-16h84.21875c-1.320313 5.128906-2.105469 10.472656-2.105469 16 0 35.289062 28.710938 64 64 64s64-28.710938 64-64c0-32.574219-24.488281-59.488281-56-63.449219zm16-160.550781h-36.320312c7.632812-8.496094 12.320312-19.703125 12.320312-32s-4.6875-23.503906-12.320312-32h44.320312v56c0 4.414062-3.585938 8-8 8zm-104-32c0-17.648438 14.351562-32 32-32s32 14.351562 32 32-14.351562 32-32 32-32-14.351562-32-32zm4.945312-96h54.109376l8 16h-70.109376zm-44.945312 32h144c4.414062 0 8 3.585938 8 8v8h-160v-8c0-4.414062 3.585938-8 8-8zm-8 88v-56h44.320312c-7.632812 8.496094-12.320312 19.703125-12.320312 32s4.6875 23.503906 12.320312 32h-36.320312c-4.414062 0-8-3.585938-8-8zm44.945312 24h70.109376l-8 16h-54.109376zm27.054688 32h16v64h-16zm40 80c4.414062 0 8 3.585938 8 8v24.550781c-8.070312 1.015625-15.703125 3.488281-22.550781 7.226563l-79.570313-39.777344zm-203.792969-36.945312 174.863281 87.433593c-3.917968 3.871094-7.300781 8.273438-10.132812 13.046875l-195.203125-97.597656c8.503906-6.539062 20.738281-7.761719 30.472656-2.882812zm-109.816406 81.867187 67.195313-67.1875 16.910156 8.464844-71.417969 71.417969c-3.613281-4.808594-7.886719-9.082032-12.6875-12.695313zm80.175781-299.488281-4.222656 29.597656-25.375-25.375zm16.785156 73.230468-63.625 10.609376c-1.375-19.847657-17.152343-35.632813-37-37l10.609376-63.625zm-103.351562-10.664062c13.230469 0 24 10.769531 24 24s-10.769531 24-24 24-24-10.769531-24-24 10.769531-24 24-24zm-8 63.183594c2.585938.535156 5.257812.816406 8 .816406s5.414062-.28125 8-.816406v48.816406h-16zm-16 64.816406h67.054688l16.546874 33.089844-1.113281 1.109375-13.800781 13.800781h-68.6875zm-32 72c0-4.414062 3.585938-8 8-8h76.6875l-36.703125 36.703125c-7.417969-3.007813-15.503906-4.703125-23.984375-4.703125-8.496094 0-16.574219 1.695312-24 4.710938zm24 136c-26.472656 0-48-21.527344-48-48s21.527344-48 48-48 48 21.527344 48 48-21.527344 48-48 48zm160 0c-26.472656 0-48-21.527344-48-48s21.527344-48 48-48 48 21.527344 48 48-21.527344 48-48 48zm0-112c-23.625 0-44.246094 12.902344-55.34375 32h-37.34375l70.261719-70.265625 140.539062 70.265625h-62.769531c-11.097656-19.097656-31.71875-32-55.34375-32zm208 112c-26.472656 0-48-21.527344-48-48s21.527344-48 48-48 48 21.527344 48 48-21.527344 48-48 48zm0-80c-17.648438 0-32 14.351562-32 32s14.351562 32 32 32 32-14.351562 32-32-14.351562-32-32-32zm0 48c-8.824219 0-16-7.175781-16-16s7.175781-16 16-16c8.816406 0 16 7.175781 16 16s-7.183594 16-16 16zm-368-48c-17.648438 0-32 14.351562-32 32s14.351562 32 32 32 32-14.351562 32-32-14.351562-32-32-32zm0 48c-8.824219 0-16-7.175781-16-16s7.175781-16 16-16c8.816406 0 16 7.175781 16 16s-7.183594 16-16 16zm160-48c-17.648438 0-32 14.351562-32 32s14.351562 32 32 32 32-14.351562 32-32-14.351562-32-32-32zm0 48c-8.824219 0-16-7.175781-16-16s7.175781-16 16-16c8.816406 0 16 7.175781 16 16s-7.183594 16-16 16zm8-376h-16c0-13.230469-10.769531-24-24-24v-16c22.054688 0 40 17.945312 40 40zm16 0c0-30.871094-25.128906-56-56-56v-16c39.703125 0 72 32.296875 72 72zm-160 96c0-4.425781 3.574219-8 8-8s8 3.574219 8 8-3.574219 8-8 8-8-3.574219-8-8zm0 0" fill="url(#linear0)"/></svg>