<svg height="493.656pt" viewBox="0 0 493.656 493.656" width="493.656pt" xmlns="http://www.w3.org/2000/svg" xmlns:xlink="http://www.w3.org/1999/xlink"><linearGradient id="linear0" gradientUnits="userSpaceOnUse" x1="246.828" x2="246.828" y1="493.656" y2="0"><stop offset="0" stop-color="#9f2fff"/><stop offset="1" stop-color="#0bb1d3"/></linearGradient><path d="m207.480469 212.167969-13.664063-8.328125c14.558594-23.878906 32.015625-46.070313 51.894532-65.953125 5.425781-5.421875 11.136718-10.773438 16.96875-15.886719l10.550781 12.015625c-5.566407 4.894531-11.023438 10.007813-16.207031 15.183594-18.984376 18.976562-35.65625 40.167969-49.542969 62.96875zm-8.96875 15.632812-14.085938-7.59375c-2.898437 5.378907-5.65625 10.832031-8.28125 16.378907l14.464844 6.839843c2.503906-5.289062 5.144531-10.503906 7.902344-15.625zm295.144531-203.800781-.160156 1.566406-9.558594 47.792969c-14.992188 74.960937-51.488281 143.160156-105.546875 197.207031-11.886719 11.890625-24.480469 22.9375-37.695313 33.105469-7.144531 79.625-65.679687 102.847656-68.207031 103.816406l-4.832031 1.832031-41.871094-41.871093-21.816406 10.175781-7.878906-7.882812-32 16-56.152344-56.15625 16-32-7.882812-7.882813 10.175781-21.816406-41.871094-41.871094 1.832031-4.832031c.960938-2.535156 24.183594-61.0625 103.808594-68.207032 10.167969-13.222656 21.207031-25.808593 33.105469-37.703124 54.039062-54.082032 122.230469-90.570313 197.191406-105.5625l49.359375-9.710938c13.230469 0 24 10.769531 24 24zm-360.242188 228.457031 12.832032-27.496093c8.832031-18.9375 19.195312-36.976563 30.859375-54.105469-47.511719 9.183593-67.746094 39.695312-73.847657 51.441406zm50.738282 105.351563-48.304688-48.296875-8.457031 16.914062 39.839844 39.839844zm138.664062-41.265625c-17.136718 11.671875-35.175781 22.023437-54.113281 30.855469l-27.496094 12.832031 30.167969 30.167969c11.714844-6.09375 42.257812-26.320313 51.441406-73.855469zm138.472656-217.605469-66.578124-66.570312c-60.519532 17.183593-115.496094 49.386718-160.320313 94.199218-30.574219 30.578125-55.351563 65.960938-73.648437 105.144532l-25.476563 54.585937 72.078125 72.078125 54.585938-25.480469c39.183593-18.277343 74.558593-43.0625 105.148437-73.648437 44.824219-44.804688 77.019531-99.773438 94.210937-160.308594zm16.34375-75.59375c-.320312-3.886719-3.425781-7-7.320312-7.320312l-46.871094 9.375c-3.59375.722656-7.160156 1.53125-10.722656 2.355468l53.191406 53.183594c.824219-3.5625 1.632813-7.128906 2.347656-10.722656zm-232.570312 172.753906 52.496094 52.496094-100.4375 82.183594-34.242188-34.234375zm1.183594 23.804688-61.8125 75.554687 13.757812 13.765625 75.550782-61.824218zm167.410156-75.902344c0 35.289062-28.710938 64-64 64s-64-28.710938-64-64 28.710938-64 64-64 64 28.710938 64 64zm-16 0c0-26.472656-21.527344-48-48-48s-48 21.527344-48 48 21.527344 48 48 48 48-21.527344 48-48zm-16 0c0 17.648438-14.351562 32-32 32s-32-14.351562-32-32 14.351562-32 32-32 32 14.351562 32 32zm-16 0c0-8.824219-7.175781-16-16-16s-16 7.175781-16 16 7.175781 16 16 16 16-7.175781 16-16zm-61.65625 338.34375 11.3125 11.3125 16-16-11.3125-11.3125zm187.3125-164.6875-72.066406 72.0625c1.507812 3.121094 2.410156 6.585938 2.410156 10.28125 0 13.230469-10.769531 24-24 24-3.695312 0-7.152344-.902344-10.28125-2.40625l-48.0625 48.0625-11.3125-11.3125 48.0625-48.0625c-1.503906-3.121094-2.40625-6.585938-2.40625-10.28125 0-13.230469 10.769531-24 24-24 3.695312 0 7.152344.902344 10.28125 2.40625l72.0625-72.0625zm-85.65625 82.34375c0-4.414062-3.59375-8-8-8-4.410156 0-8 3.585938-8 8s3.589844 8 8 8c4.40625 0 8-3.585938 8-8zm-405.65625 82.34375 11.3125 11.3125 16-16-11.3125-11.3125zm120-120-96 96 11.3125 11.3125 96-96zm-56 96 11.3125 11.3125 16-16-11.3125-11.3125zm24-24 11.3125 11.3125 48-48-11.3125-11.3125zm-52.6875-4.6875 16-16-11.3125-11.3125-16 16zm72-72-11.3125-11.3125-48 48 11.3125 11.3125zm312-72-11.3125-11.3125-16 16 11.3125 11.3125zm-3.3125-19.3125 11.3125 11.3125 64-64-11.3125-11.3125zm-264-144 11.3125 11.3125 16-16-11.3125-11.3125zm99.3125-76.6875-11.3125-11.3125-64 64 11.3125 11.3125zm-251.3125 140.6875 24.0625-24.0625c-1.503906-3.121094-2.40625-6.585938-2.40625-10.28125 0-13.230469 10.769531-24 24-24 3.695312 0 7.152344.902344 10.28125 2.40625l128.0625-128.0625 11.3125 11.3125-128.066406 128.0625c1.507812 3.121094 2.410156 6.585938 2.410156 10.28125 0 13.230469-10.769531 24-24 24-3.695312 0-7.152344-.902344-10.28125-2.40625l-24.0625 24.0625zm37.65625-34.34375c0 4.414062 3.589844 8 8 8 4.40625 0 8-3.585938 8-8s-3.59375-8-8-8c-4.410156 0-8 3.585938-8 8zm18.34375 106.34375-32 32 11.3125 11.3125 32-32zm-44.6875 67.3125 16-16-11.3125-11.3125-16 16zm212.6875 132.6875 11.3125 11.3125 32-32-11.3125-11.3125zm-24 24 11.3125 11.3125 16-16-11.3125-11.3125zm0 0" fill="url(#linear0)"/></svg>